<svg width="98" height="41" viewBox="0 0 98 41" fill="none" xmlns="http://www.w3.org/2000/svg">
<g clip-path="url(#clip0_144_407)">
<path fill-rule="evenodd" clip-rule="evenodd" d="M30.5195 24.4619C30.4515 24.5027 30.3971 24.5707 30.3631 24.6455C30.3155 24.7476 30.2611 24.8428 30.2135 24.9448C30.1931 24.9856 30.1659 25.0196 30.1251 25.04C30.0843 25.0604 30.0367 25.0672 29.9959 25.0604L29.3906 24.9788C28.9894 24.9244 28.5882 24.8632 28.1801 24.8088C28.0373 24.7884 27.8877 24.8088 27.7517 24.8564C27.364 24.9856 26.9696 25.0808 26.582 25.2032L25.6299 25.482C25.5143 25.516 25.4055 25.55 25.2899 25.584C25.1674 25.6248 25.1538 25.652 25.1742 25.7676C25.1946 25.8833 25.1878 25.8833 25.0858 25.9105C25.0518 25.9173 25.0178 25.9377 24.9974 25.9649C24.9702 25.9921 24.9566 26.0261 24.9566 26.0601C24.9294 26.2301 24.8138 26.2845 24.6642 26.3185C24.4126 26.3797 24.1746 26.4681 23.9297 26.5429L23.5829 26.6449C23.5353 26.6517 23.4877 26.6789 23.4605 26.7129C23.4265 26.7537 23.4129 26.8013 23.4129 26.8489C23.3925 26.9782 23.3925 27.1142 23.4129 27.2434C23.4129 27.3114 23.4061 27.3794 23.3857 27.4474H23.3585L23.2089 27.223C23.1545 27.1482 23.1069 27.0666 23.0525 26.9986C22.9708 26.8897 22.9232 26.8761 22.794 26.9102C22.59 26.9646 22.386 27.0258 22.182 27.0938C21.978 27.1482 21.7603 27.1482 21.5563 27.0938C21.4407 27.0734 21.3183 27.0598 21.2027 27.0462C21.1687 27.0462 21.1415 27.0462 21.1143 27.0598C21.0871 27.0734 21.0667 27.0938 21.0463 27.121C20.9783 27.223 20.9103 27.3318 20.8422 27.4338C20.7946 27.495 20.747 27.563 20.6858 27.6582C20.6722 27.5018 20.6858 27.3454 20.7266 27.189C20.7266 27.1686 20.7402 27.1482 20.747 27.1278C20.7674 27.019 20.747 26.9646 20.645 26.9306C20.543 26.8965 20.3934 26.8557 20.2642 26.8285C20.135 26.7945 19.9582 26.7605 19.8018 26.7265C19.6793 26.6993 19.5569 26.6857 19.4345 26.6653L18.9925 26.5769L18.2376 26.4273L17.8976 26.3593H17.8568C17.6324 26.3389 17.6052 26.3593 17.6324 26.5565C17.6732 26.9033 17.6596 27.257 17.7276 27.597C17.748 27.7534 17.7616 27.903 17.7684 28.0595C17.7956 28.3451 17.8228 28.6307 17.8568 28.9163C17.884 29.1544 17.8976 29.3924 17.9316 29.6304C17.9724 29.8684 17.9724 30.0996 17.9928 30.3309C18.02 30.5621 18.0404 30.8069 18.0608 31.0449V31.0993L18.1492 31.7454C18.1492 31.7862 18.1492 31.827 18.1628 31.861C18.1764 32.0106 18.1968 32.1602 18.2104 32.303V32.3982C18.2376 32.6499 18.258 32.9015 18.2852 33.1531C18.2852 33.2619 18.3056 33.3775 18.3192 33.4863C18.3328 33.5952 18.3396 33.6632 18.3464 33.7516C18.3532 33.84 18.36 33.9896 18.3736 34.112C18.394 34.2956 18.4212 34.4792 18.4416 34.6629C18.4484 34.7173 18.4552 34.7785 18.4552 34.8329C18.4552 34.9417 18.4144 34.9689 18.3124 34.9485C18.0132 34.8873 17.7072 34.8193 17.4079 34.7445C17.1087 34.6697 16.7823 34.5608 16.4627 34.4656C16.1158 34.35 15.7758 34.214 15.4494 34.0508C15.1433 33.9148 14.8237 33.7924 14.5245 33.6564C14.2729 33.5544 14.0484 33.4115 13.8308 33.2959C13.4772 33.1259 13.1644 32.8743 12.8379 32.6839C12.5863 32.5343 12.3483 32.3642 12.1239 32.1738C12.0219 32.0922 11.8994 32.031 11.811 31.9494C11.641 31.8134 11.471 31.6706 11.301 31.5278C11.131 31.385 10.9542 31.2489 10.7977 31.0925C10.5121 30.8205 10.2265 30.5417 9.94766 30.2561C9.78445 30.086 9.62804 29.9024 9.47162 29.7188C9.288 29.4944 9.10439 29.2768 8.93437 29.0523C8.62154 28.6375 8.34272 28.2023 8.0843 27.7466C7.97549 27.5562 7.85988 27.3658 7.74427 27.1754C7.69666 27.0938 7.65586 26.9986 7.61505 26.9102C7.54025 26.7605 7.46544 26.6109 7.39063 26.4545C7.33623 26.3389 7.34983 26.3185 7.47904 26.2981C7.60825 26.2777 7.73066 26.2641 7.85988 26.2573C8.06389 26.2437 8.27471 26.2369 8.48553 26.2233C8.73716 26.2029 8.99558 26.1757 9.2472 26.1553H9.48522C9.79125 26.1281 10.1041 26.1349 10.4101 26.0805C10.5325 26.0669 10.6481 26.0669 10.7705 26.0805C10.8385 26.0941 10.9066 26.1213 10.9678 26.1553C11.1582 26.2641 11.3418 26.3797 11.5254 26.4885C11.709 26.5973 11.879 26.7401 12.0559 26.8693C12.1375 26.9237 12.1375 26.9578 12.0899 27.053C11.9538 27.3386 11.8178 27.631 11.6818 27.9166C11.6342 28.0187 11.6002 28.1207 11.5594 28.2227C11.5458 28.2567 11.5458 28.2907 11.5594 28.3179C11.5594 28.3315 11.6138 28.3179 11.641 28.3179C11.777 28.2567 11.913 28.1955 12.0423 28.1207C12.2259 28.0187 12.4095 27.9166 12.5931 27.801C12.6815 27.7534 12.7767 27.733 12.8787 27.7534C13.1032 27.7942 13.3208 27.835 13.5588 27.8758C13.7424 27.903 13.926 27.9438 14.1028 27.9914C14.2048 28.0323 14.2933 28.0935 14.3749 28.1683C14.4905 28.2635 14.5993 28.3723 14.7081 28.4743C14.7489 28.5083 14.7965 28.5355 14.8373 28.5559C14.8373 28.5015 14.8373 28.4471 14.8373 28.3927C14.7693 28.1071 14.7013 27.8214 14.6333 27.5426C14.5925 27.4338 14.5925 27.3114 14.6333 27.2026C14.6401 27.1754 14.6537 27.155 14.6741 27.1346C14.6945 27.1142 14.7149 27.1006 14.7421 27.0938L15.5174 26.8489L16.4014 26.5769L16.9591 26.4137C17.0747 26.3797 17.1971 26.3389 17.3127 26.2981C17.3467 26.2845 17.3739 26.2641 17.4011 26.2369C17.4215 26.2097 17.4351 26.1757 17.4351 26.1349C17.4419 26.0533 17.4419 25.9649 17.4351 25.8833C17.4351 25.8357 17.4079 25.788 17.3739 25.754C17.3399 25.72 17.2923 25.6996 17.2379 25.6996C16.9795 25.6656 16.7211 25.6452 16.4627 25.618L15.5038 25.5228L15.0617 25.482C15.0617 25.482 15.0005 25.482 14.9733 25.4684C14.9529 25.4684 14.9393 25.4616 14.9189 25.448C14.9053 25.4412 14.8849 25.4276 14.8781 25.414C14.8645 25.4004 14.8577 25.38 14.8509 25.3664C14.8509 25.346 14.8509 25.3256 14.8509 25.312V25.1148C14.8509 25.1148 14.8441 25.0536 14.8305 25.0264C14.7557 25.0128 14.7217 25.0604 14.6809 25.1012C14.6469 25.1488 14.5721 25.2372 14.5177 25.312C14.4837 25.3528 14.4429 25.38 14.4021 25.3936C14.3545 25.4072 14.3069 25.414 14.2593 25.4072C14.0348 25.3868 13.824 25.3664 13.6132 25.3664C13.4636 25.3664 13.3208 25.3936 13.1712 25.4004C13.0215 25.4004 12.9127 25.4004 12.7835 25.4004C12.7495 25.4004 12.7155 25.3868 12.6883 25.3664C12.6611 25.346 12.6407 25.3188 12.6271 25.2916C12.5319 25.1148 12.4367 24.9312 12.3347 24.7544C12.3075 24.7068 12.2735 24.6659 12.2259 24.5911C12.2055 24.6319 12.1919 24.6727 12.1851 24.7204C12.1851 24.836 12.1851 24.9448 12.1987 25.0672C12.2123 25.1896 12.1987 25.244 12.2123 25.3324C12.2123 25.346 12.2123 25.3596 12.2123 25.3732C12.2123 25.3868 12.1987 25.4004 12.1919 25.414C12.1851 25.4276 12.1715 25.4344 12.1579 25.4412C12.1443 25.448 12.1307 25.448 12.1171 25.448C12.0083 25.4616 11.8926 25.482 11.7906 25.4888C11.5458 25.5024 11.3078 25.516 11.063 25.5296C10.9678 25.5296 10.8793 25.5092 10.8045 25.4548C10.5257 25.278 10.2469 25.1012 9.96127 24.9244C9.68244 24.7476 9.39001 24.5707 9.10439 24.3939C8.87997 24.2579 8.68275 24.1151 8.47193 23.9791C8.26111 23.8363 8.1047 23.7275 7.92108 23.6119C7.73746 23.4894 7.49264 23.3534 7.28182 23.231C6.9758 23.0406 6.66977 22.8434 6.35694 22.653C6.28893 22.6122 6.22773 22.5578 6.18692 22.4897C6.14612 22.4217 6.12572 22.3401 6.11892 22.2653C6.08491 21.9321 6.03731 21.5989 6.02371 21.2724C5.98291 20.9936 5.98291 20.708 6.01011 20.4224C6.01011 20.3748 6.01011 20.334 6.01011 20.2864C6.01011 20.1503 5.98971 20.0211 5.99651 19.8919C5.99651 19.6471 6.02371 19.4023 6.04411 19.1642C6.04411 19.0214 6.07131 18.8854 6.08491 18.7426C6.10532 18.5658 6.11892 18.389 6.14612 18.219C6.17332 18.0489 6.21413 17.8177 6.25493 17.6137C6.34334 17.1717 6.43855 16.75 6.56776 16.3216C6.69697 15.8932 6.81938 15.4647 6.9894 15.0499C7.037 14.9343 7.09821 14.8255 7.15261 14.703L7.17301 14.669C7.27502 14.4446 7.37023 14.227 7.47224 14.0026C7.57425 13.7782 7.68306 13.5809 7.79867 13.3769C7.98229 13.0505 8.1727 12.7241 8.36312 12.3976C8.41753 12.3092 8.47193 12.2276 8.53314 12.146C8.70315 11.908 8.86637 11.6632 9.04318 11.432C9.17919 11.2551 9.32881 11.0919 9.46482 10.9219C9.68244 10.6431 9.91366 10.3779 10.1653 10.1262C10.2537 10.0378 10.3353 9.93582 10.4237 9.84061C10.5121 9.7454 10.5393 9.7182 10.6005 9.66379C10.7161 9.55498 10.8249 9.43937 10.9474 9.33056C11.0086 9.26935 11.0902 9.22175 11.1582 9.16735C11.4302 8.94292 11.6954 8.72531 11.9742 8.50089C12.1579 8.35807 12.3551 8.22886 12.5523 8.09965C12.7495 7.97044 12.8855 7.87523 13.0623 7.75962C13.3072 7.61 13.552 7.46719 13.8036 7.31758C14.0144 7.20197 14.2253 7.08636 14.4361 6.97755C14.5653 6.91634 14.6945 6.85514 14.8237 6.80073C15.3406 6.57631 15.8778 6.37909 16.4082 6.18868C16.6463 6.10027 16.8843 6.02546 17.1291 5.96426C17.7208 5.82824 18.3056 5.69903 18.8905 5.57662C19.1217 5.53582 19.3529 5.50181 19.5841 5.48821C19.9514 5.45421 20.3254 5.42701 20.6926 5.4066C21.0123 5.393 21.3387 5.3726 21.6583 5.3794C21.978 5.3862 22.3044 5.42021 22.624 5.44061C22.7804 5.45421 22.93 5.46101 23.0865 5.48141C23.3857 5.51542 23.6917 5.55622 23.9909 5.59702C24.1814 5.62422 24.3718 5.65823 24.5622 5.69903C24.7118 5.73303 24.8546 5.77384 25.0042 5.81464C25.1538 5.85545 25.3511 5.89625 25.5143 5.94385C25.7455 6.01186 25.9835 6.07987 26.2147 6.15467C26.4732 6.23628 26.7316 6.30429 26.9832 6.4131C27.5069 6.61031 28.0169 6.83473 28.5133 7.09316C28.6834 7.18837 28.8738 7.26317 29.0438 7.36518C29.2138 7.46719 29.4246 7.6032 29.615 7.72561C29.8055 7.84803 29.9891 7.95004 30.1727 8.08605C30.4787 8.31047 30.7779 8.52809 31.0704 8.75251C31.4852 9.08574 31.8797 9.43937 32.2469 9.8202C32.3489 9.91541 32.4305 10.0446 32.5325 10.133C33.0018 10.6023 33.437 11.1123 33.8178 11.6496C33.9198 11.7856 34.0082 11.9284 34.0966 12.0644C34.1443 12.1324 34.1919 12.1936 34.2395 12.2548C34.5047 12.6289 34.7359 13.0233 34.9399 13.4313C34.9467 13.4449 34.9535 13.4653 34.9671 13.4789C35.0759 13.6353 35.1643 13.8054 35.2392 13.9822C35.4024 14.3698 35.5792 14.7438 35.7288 15.1315C35.8444 15.4171 35.926 15.7095 36.0212 16.002C36.1096 16.2944 36.2048 16.614 36.2864 16.92C36.3409 17.1241 36.3953 17.3281 36.4361 17.5389C36.4837 17.8109 36.5177 18.0898 36.5585 18.3618C36.6061 18.7222 36.6401 19.0826 36.6809 19.4431V19.7627C36.6809 19.8579 36.7013 20.0279 36.7013 20.1571C36.7013 20.3272 36.6877 20.4972 36.6809 20.6672V20.7896C36.6673 20.9936 36.6537 21.1976 36.6401 21.3948V21.5037C36.6401 21.7349 36.6129 21.9661 36.5721 22.1905C36.5381 22.3537 36.5245 22.517 36.5041 22.6802C36.4973 22.7346 36.4769 22.789 36.4429 22.8366C36.4089 22.8842 36.3613 22.9182 36.3137 22.9454C35.9056 23.1698 35.4976 23.3874 35.0895 23.6119L33.9062 24.2647C33.7158 24.3735 33.5186 24.4891 33.3282 24.5911C33.0222 24.7612 32.7229 24.9448 32.4237 25.1216C32.3217 25.1828 32.2129 25.2372 32.1109 25.2916C32.0089 25.346 31.8864 25.3596 31.7708 25.3392L30.812 25.21C30.812 25.21 30.7507 25.2032 30.7235 25.1964C30.5875 25.1624 30.5739 25.142 30.5739 25.006C30.5739 24.87 30.5739 24.7476 30.5739 24.6183C30.5739 24.5775 30.5603 24.5299 30.5467 24.4891M31.4308 12.282C31.3764 12.3024 31.3288 12.3296 31.2812 12.3568C31.1996 12.4112 31.118 12.4724 31.0296 12.5337L29.7715 13.4653L29.547 13.6353C29.3022 13.8258 29.0574 14.0162 28.8058 14.1998C28.5541 14.3834 28.3637 14.5194 28.1393 14.6826C28.0169 14.7711 27.8945 14.8731 27.7721 14.9683C27.5681 15.1179 27.3572 15.2607 27.1532 15.4103C26.9492 15.5599 26.718 15.7367 26.5072 15.9L25.7727 16.4304C25.4191 16.6956 25.0722 16.954 24.7186 17.2125C24.5826 17.3077 24.4466 17.3893 24.3106 17.4845C24.1746 17.5797 23.9909 17.7225 23.8345 17.8449C23.7189 17.9265 23.5965 18.0081 23.4877 18.0898C23.1477 18.3482 22.8212 18.6134 22.4812 18.865C22.1344 19.1166 21.7875 19.3751 21.4407 19.6199C21.3727 19.6675 21.2979 19.7151 21.2367 19.7695C21.2027 19.8035 21.1619 19.8171 21.1143 19.8171C21.0667 19.8171 21.0259 19.7967 20.9919 19.7695C20.8082 19.6335 20.6246 19.5111 20.4342 19.3819C20.373 19.3411 20.2982 19.3139 20.237 19.2663C19.9854 19.0894 19.7542 18.8786 19.4889 18.7154C19.2645 18.5862 19.0809 18.423 18.8701 18.2734C18.7817 18.2122 18.6933 18.1578 18.6048 18.0966C18.3804 17.9197 18.1492 17.7565 17.9112 17.6069C17.8364 17.5661 17.7616 17.5117 17.6868 17.4641L17.2447 17.1513C17.1155 17.0629 16.9795 16.9745 16.8503 16.886C16.6667 16.7568 16.4831 16.6208 16.2994 16.4916C16.1566 16.3896 16.007 16.2876 15.8574 16.1856L15.3746 15.8524L14.9189 15.5327C14.8033 15.4579 14.6945 15.3695 14.5789 15.2947C14.4633 15.2199 14.2797 15.1043 14.1368 15.0023C14.0484 14.9411 13.9804 14.8595 13.892 14.7983C13.6268 14.6146 13.3616 14.431 13.0963 14.2474C12.8311 14.0638 12.5047 13.8258 12.2123 13.6217C11.709 13.2817 11.2058 12.9553 10.7025 12.6085C10.6617 12.5813 10.6277 12.5473 10.5529 12.5881C10.5665 12.6357 10.5869 12.6833 10.6073 12.7241C10.7025 12.8805 10.7909 13.0369 10.893 13.1933C11.1582 13.6149 11.437 14.0366 11.7022 14.4582C11.845 14.6826 11.9674 14.9003 12.1103 15.1247C12.1511 15.1927 12.2055 15.2539 12.2463 15.3219C12.2939 15.3899 12.3211 15.4307 12.3551 15.4919L12.6679 16.002C12.7291 16.104 12.7903 16.206 12.8583 16.308L13.7628 17.7089C13.8648 17.8653 13.9668 18.0149 14.0688 18.1782C14.13 18.2734 14.1844 18.3686 14.2389 18.4638L14.8373 19.4227C14.8713 19.4771 14.8985 19.5451 14.9325 19.5995C15.1297 19.9055 15.3338 20.2183 15.531 20.5244L15.9254 21.1228L16.5443 22.0817C16.6395 22.2041 16.7211 22.3333 16.7959 22.4693C16.8639 22.6054 16.9455 22.7414 17.0407 22.8638C17.1087 22.9522 17.1631 23.061 17.1971 23.1698C17.2311 23.3398 17.2515 23.5098 17.2583 23.6799C17.2719 23.8431 17.2787 24.0063 17.2991 24.1695C17.3467 24.6115 17.4011 25.0604 17.4487 25.4888C17.4691 25.652 17.4827 25.6724 17.646 25.652C17.7072 25.6452 17.7684 25.6316 17.8296 25.6112L17.9588 25.5704L18.7409 25.3596C19.1013 25.2644 19.4617 25.1692 19.8154 25.074C20.0534 25.0128 20.2914 24.938 20.5294 24.87C20.6246 24.8428 20.645 24.8156 20.6382 24.7136C20.6382 24.6727 20.6314 24.6319 20.6178 24.5979C20.5294 24.3599 20.441 24.1287 20.3526 23.8907C20.3322 23.8363 20.3186 23.7751 20.2982 23.6935L20.4478 23.7615C20.747 23.9315 21.0395 24.1151 21.3115 24.3259C21.3795 24.3871 21.4611 24.4211 21.5495 24.4279C21.6447 24.4279 21.7331 24.4279 21.8283 24.4075L22.4948 24.3599H22.692C22.8688 24.3599 23.032 24.2851 23.1613 24.1695C23.3109 24.0335 23.4673 23.9179 23.6237 23.7887C23.6509 23.7751 23.6713 23.7615 23.6985 23.7479C23.6985 23.7683 23.6985 23.7887 23.6985 23.8091C23.6509 23.9587 23.6101 24.1015 23.5557 24.2511C23.4945 24.4347 23.4129 24.6183 23.3585 24.802C23.3041 24.9856 23.3381 25.0808 23.5285 25.1556L24.4874 25.5432C24.5622 25.5772 24.6438 25.6044 24.7254 25.6248C24.8886 25.6656 24.9498 25.6112 24.9702 25.4412C24.9906 25.2712 24.9838 25.1148 24.9974 24.9516C25.011 24.7272 25.0382 24.4891 25.0518 24.2647C25.0722 23.9587 25.079 23.6527 25.1062 23.3466C25.1062 23.197 25.1402 23.0406 25.2014 22.9046C25.2558 22.8026 25.3171 22.7074 25.3715 22.6054L26.0991 21.3948L26.1875 21.2452C26.412 20.8712 26.65 20.4972 26.8744 20.1367C27.1056 19.7695 27.3436 19.3411 27.5817 18.9466L28.0985 18.0762L28.2141 17.8857C28.3501 17.6545 28.4793 17.4165 28.6222 17.1853C28.833 16.8384 29.0506 16.5052 29.2614 16.1584C29.411 15.9068 29.5538 15.6415 29.7035 15.3899C29.8871 15.0839 30.0707 14.7779 30.2543 14.465C30.5059 14.0298 30.7575 13.6013 31.0092 13.1661C31.0296 13.1321 31.05 13.1117 31.0636 13.0777C31.186 12.8533 31.3152 12.6357 31.4376 12.4112C31.4444 12.4044 31.4512 12.3908 31.458 12.3772C31.458 12.3636 31.458 12.35 31.458 12.3364C31.458 12.3228 31.458 12.3092 31.4444 12.3024C31.4308 12.2956 31.4308 12.282 31.4172 12.2752M21.1279 17.9061C21.6039 17.9061 22.0664 17.7769 22.4744 17.5321C22.7056 17.4165 22.9164 17.2669 23.0933 17.0901C23.2565 16.92 23.4061 16.7364 23.5353 16.5392C23.6917 16.2672 23.8209 15.9748 23.9093 15.6755C23.9093 15.6551 23.9229 15.6347 23.9229 15.6143C23.9501 15.4715 23.9705 15.3355 23.9909 15.1995C23.9909 15.1519 23.9909 15.1043 23.9909 15.0567C23.9909 15.0159 23.9909 14.9751 23.9909 14.9411C24.0113 14.7438 23.9909 14.5398 23.9433 14.3494C23.9093 14.1318 23.8413 13.9142 23.7461 13.717C23.5489 13.2545 23.2293 12.8533 22.8348 12.5473C22.59 12.35 22.3112 12.2072 22.012 12.1256C21.6243 11.9964 21.2163 11.942 20.8082 11.9692C20.475 12.01 20.1486 12.0984 19.8426 12.2344C19.5909 12.3432 19.3665 12.486 19.1625 12.6697C18.7613 13.0165 18.462 13.4653 18.2988 13.9686C18.224 14.1522 18.1832 14.3494 18.1696 14.5534C18.1696 14.6622 18.1628 14.7643 18.1424 14.8731C18.1288 15.1383 18.1492 15.4035 18.2104 15.6619C18.2512 15.8387 18.3124 16.0088 18.3804 16.1788C18.394 16.2196 18.4076 16.2536 18.428 16.2876C18.5708 16.5664 18.7613 16.8248 18.9789 17.0493C19.1285 17.2057 19.2985 17.3417 19.4753 17.4641C19.6453 17.5593 19.829 17.6409 20.0126 17.7089C20.3662 17.8585 20.7402 17.9333 21.1211 17.9333M18.9109 25.9105V25.9513C18.9857 25.9853 19.0741 26.0125 19.1557 26.0329C19.5229 26.1145 19.8902 26.2029 20.2642 26.2845C20.4002 26.3185 20.543 26.3389 20.6858 26.3525C20.8286 26.3661 20.8763 26.3321 20.9103 26.1893C20.9443 26.0465 20.9647 25.9445 20.9783 25.8221C20.9919 25.7336 20.9919 25.6384 20.9783 25.55C20.9443 25.3936 20.8763 25.3528 20.713 25.3936C20.5566 25.4344 20.441 25.4684 20.305 25.5092L19.0673 25.8561C19.0197 25.8765 18.9721 25.8969 18.9313 25.9173M22.1956 26.0669C22.0528 26.0873 21.9099 26.1077 21.7535 26.1213C21.7195 26.1213 21.6855 26.1349 21.6583 26.1553C21.6311 26.1757 21.6039 26.1961 21.5903 26.2233C21.5631 26.2573 21.5427 26.2981 21.5155 26.3321C21.4475 26.4409 21.4611 26.4885 21.5835 26.5293C21.7467 26.6041 21.9303 26.6109 22.1004 26.5497C22.2296 26.4953 22.3588 26.4681 22.488 26.4205C22.5832 26.3797 22.59 26.3457 22.5492 26.2505C22.4812 26.0873 22.4472 26.0669 22.2704 26.0669H22.1752M23.9569 25.9377C23.8209 25.8289 23.6577 25.7608 23.4877 25.7404C23.4673 25.7404 23.4265 25.7812 23.4197 25.8016C23.4129 25.8765 23.4129 25.9513 23.4197 26.0261C23.4197 26.0397 23.4197 26.0533 23.4333 26.0669C23.4469 26.0805 23.4469 26.0873 23.4605 26.1009C23.4741 26.1077 23.4809 26.1145 23.4945 26.1213C23.5081 26.1213 23.5217 26.1213 23.5353 26.1213C23.6917 26.1009 23.8345 26.0397 23.9569 25.9445" fill="#1C1B1B"/>
<path fill-rule="evenodd" clip-rule="evenodd" d="M24.4534 34.8465C24.4194 34.7445 24.4126 34.6357 24.4262 34.5337C24.4466 34.4249 24.4602 34.3161 24.4602 34.2004C24.4738 34.0032 24.4806 33.8128 24.4942 33.6156C24.5146 33.3028 24.5418 32.9899 24.5622 32.6771C24.5622 32.5683 24.5622 32.4527 24.5758 32.3439C24.5962 31.997 24.6234 31.6434 24.6438 31.3034V30.9974C24.6574 30.7457 24.6778 30.4941 24.6914 30.2425C24.705 29.9909 24.7118 29.8004 24.7254 29.576C24.739 29.3516 24.7594 29.134 24.773 28.9096C24.7866 28.6851 24.7934 28.4063 24.807 28.1547C24.8206 27.9031 24.8478 27.6787 24.8614 27.4406C24.8614 27.3726 24.8614 27.3046 24.875 27.2434C24.8886 27.019 24.8954 26.8218 24.909 26.6042C24.909 26.577 24.9158 26.5498 24.9294 26.5294C24.9566 26.4477 24.9838 26.4273 25.0654 26.4409C25.1402 26.4477 25.2151 26.4613 25.2899 26.4817C25.7115 26.5838 26.1331 26.6858 26.5548 26.781C27.0376 26.8898 27.5205 27.0054 28.0033 27.1006C28.0373 27.1006 28.0713 27.1142 28.1053 27.1346C28.1393 27.155 28.1597 27.1822 28.1801 27.2094C28.2005 27.2434 28.2073 27.2774 28.2141 27.3114C28.2141 27.3454 28.2141 27.3862 28.1937 27.4134C28.1325 27.6855 28.0713 27.9575 28.0169 28.2295C27.9897 28.3111 27.9897 28.3995 28.0169 28.4811C28.0577 28.4607 28.0985 28.4335 28.1393 28.3995C28.2821 28.2567 28.4249 28.1071 28.5678 27.9575C28.663 27.8827 28.7786 27.8351 28.901 27.8283L29.5538 27.6991C29.7239 27.6651 29.8939 27.6243 30.0571 27.5971C30.0979 27.5971 30.1455 27.597 30.1863 27.6175C30.2611 27.6515 30.3291 27.6923 30.4107 27.7263C30.6623 27.8487 30.9072 27.9779 31.1588 28.0935C31.1996 28.1071 31.2404 28.1139 31.288 28.1139C31.3016 28.0391 31.288 27.9575 31.2472 27.8895C31.084 27.5494 30.9208 27.2094 30.7644 26.8694C30.7576 26.849 30.7508 26.8286 30.744 26.8082C30.71 26.7062 30.7236 26.6654 30.8188 26.611C30.9752 26.5158 31.1384 26.4205 31.3016 26.3321C31.526 26.2029 31.7572 26.0805 31.9885 25.9513C32.0633 25.9105 32.1517 25.8969 32.2333 25.9105C32.4373 25.9377 32.6345 25.9581 32.8385 25.9853C33.0426 26.0125 33.1922 26.0465 33.3758 26.0737L34.3755 26.2233C34.4571 26.2369 34.5387 26.2641 34.6203 26.2709C34.7767 26.2913 34.9331 26.3117 35.0895 26.3321C35.314 26.3593 35.3208 26.4001 35.2324 26.5974C35.0147 27.0802 34.7631 27.5426 34.4843 27.9847C34.2599 28.3247 34.0423 28.6647 33.811 28.9844C33.6002 29.2632 33.369 29.5284 33.1446 29.7936C32.9202 30.0589 32.6345 30.3649 32.3693 30.6301C31.9613 31.0518 31.526 31.4394 31.0636 31.7998C30.7916 32.0038 30.5195 32.2147 30.2407 32.4119C30.0435 32.5547 29.8395 32.6907 29.6355 32.8131C29.2954 33.0171 28.9486 33.2144 28.6018 33.4116C28.2005 33.6292 27.7857 33.8196 27.3572 33.976C27.2144 34.0304 27.0716 34.0984 26.9288 34.1596C26.5888 34.3025 26.2419 34.4249 25.8883 34.5133C25.4463 34.6493 24.9974 34.7513 24.5486 34.8261H24.4806" fill="#1C1B1B"/>
<path fill-rule="evenodd" clip-rule="evenodd" d="M33.1513 37.2267C33.0221 37.2947 32.9269 37.3627 32.8181 37.4103C32.2876 37.6687 31.7572 37.9271 31.2336 38.1856C31.2063 38.1992 31.1791 38.206 31.1451 38.206C31.1179 38.206 31.0839 38.1924 31.0635 38.172C30.6827 37.9203 30.3019 37.6687 29.921 37.4171C29.8666 37.3831 29.819 37.3423 29.7374 37.3831C29.751 37.4307 29.7714 37.4783 29.785 37.5259C29.887 37.7503 30.0094 37.9543 30.1046 38.172C30.1659 38.2944 30.2203 38.4236 30.2815 38.546C30.3223 38.6276 30.3087 38.6548 30.2339 38.6956L29.7442 38.9336L28.8261 39.3757C28.6017 39.4777 28.6017 39.4777 28.4997 39.2601L28.0985 38.4236C27.9149 38.0427 27.7244 37.6687 27.5476 37.2879C27.2892 36.7506 27.0376 36.2134 26.7859 35.6761C26.7179 35.5333 26.6431 35.3905 26.5819 35.2341C26.5411 35.1389 26.5411 35.1253 26.6363 35.0777L28.0645 34.3704L28.7649 34.0236C29.1254 33.8468 29.4858 33.67 29.853 33.4931C30.023 33.4183 30.2067 33.3775 30.3903 33.3639C30.5331 33.3503 30.6759 33.3639 30.8119 33.4047C30.9479 33.4455 31.0703 33.5135 31.1791 33.6087C31.3696 33.772 31.526 33.9692 31.6212 34.2004C31.7232 34.4044 31.7844 34.6356 31.798 34.8669C31.8116 35.1253 31.73 35.3837 31.5736 35.5877C31.4852 35.6965 31.3968 35.7917 31.2948 35.887C31.2063 35.9686 31.1995 36.0094 31.2948 36.0706C31.5668 36.2406 31.8456 36.4038 32.1244 36.567L33.0629 37.1179C33.0969 37.1451 33.1309 37.1723 33.1649 37.1995M30.091 35.7169C30.0774 35.5537 30.0298 35.3973 29.9414 35.2545C29.9006 35.1865 29.8462 35.1321 29.7714 35.1049C29.6966 35.0777 29.615 35.0777 29.547 35.1049C29.4926 35.1185 29.4382 35.1389 29.3906 35.1661C29.241 35.2409 29.0846 35.3225 28.9349 35.4041C28.8397 35.4517 28.8261 35.4789 28.8669 35.5741C28.9621 35.7917 29.0642 36.0094 29.173 36.2202C29.2206 36.3086 29.2682 36.3222 29.3566 36.2814C29.5198 36.2066 29.683 36.125 29.8394 36.0366C29.9074 36.0026 29.9618 35.9482 30.0094 35.8938C30.0434 35.8393 30.0774 35.7781 30.0978 35.7237" fill="#1C1B1B"/>
<path fill-rule="evenodd" clip-rule="evenodd" d="M22.2976 35.8186H22.454C22.454 35.8186 22.4813 35.8186 22.4949 35.8186C22.5085 35.8186 22.5221 35.8322 22.5289 35.839C22.5357 35.8458 22.5493 35.8594 22.5493 35.873C22.5493 35.8866 22.5493 35.9002 22.5493 35.9138C22.5629 36.1178 22.5833 36.3219 22.6037 36.5191C22.6241 36.7231 22.6581 36.9611 22.6785 37.1855V37.3692C22.6921 37.5052 22.7329 37.5392 22.8689 37.5324C23.0933 37.5188 23.2905 37.4916 23.5013 37.478H23.5421C23.6714 37.444 23.6918 37.4304 23.685 37.3012C23.6714 37.0767 23.6442 36.8727 23.6306 36.6551C23.617 36.4987 23.5966 36.3491 23.583 36.1927C23.5694 36.0362 23.5625 35.9274 23.5557 35.7982C23.5557 35.737 23.5694 35.6962 23.6442 35.6894L24.4466 35.6078L25.0927 35.5398C25.1743 35.5398 25.2627 35.5398 25.3443 35.5398C25.4259 35.5398 25.4395 35.5602 25.4531 35.6418C25.4871 35.941 25.5211 36.2403 25.5551 36.5327C25.5755 36.7571 25.5959 36.9679 25.6163 37.1787C25.6435 37.4508 25.6707 37.7228 25.6979 37.9948C25.7319 38.2668 25.7591 38.5321 25.7932 38.7973C25.8068 38.8993 25.8136 39.0013 25.8204 39.1033C25.8408 39.2801 25.8612 39.4638 25.8748 39.6406C25.8884 39.7766 25.9088 39.9126 25.9224 40.0486C25.9224 40.069 25.9224 40.0962 25.9224 40.1166C25.9224 40.3138 25.936 40.341 25.7251 40.341C25.5143 40.341 25.3239 40.3886 25.1199 40.409H25.0519L24.2766 40.4906H24.2494C24.0454 40.511 24.0454 40.5042 24.025 40.3138C23.9842 39.9874 23.9434 39.6474 23.9026 39.3277V39.2461C23.9026 39.0829 23.855 39.0421 23.6782 39.0557C23.5625 39.0557 23.4537 39.0761 23.3313 39.0897L22.9913 39.1373C22.8825 39.1509 22.8485 39.1917 22.8621 39.3005C22.9029 39.6542 22.9437 40.0146 22.9845 40.3682C23.0117 40.5927 22.9845 40.6199 22.7737 40.6471C22.5969 40.6743 22.4132 40.6879 22.2296 40.7015L21.2571 40.8035C21.1211 40.8171 21.0939 40.8035 21.0871 40.6607C21.0735 40.4906 21.0463 40.3138 21.0327 40.1438C21.0123 39.9738 20.9987 39.8378 20.9851 39.6814C20.9647 39.525 20.9511 39.3549 20.9307 39.1917C20.9035 38.9673 20.8763 38.7361 20.8559 38.5049C20.8287 38.2192 20.8015 37.9336 20.7743 37.648C20.7539 37.4576 20.7267 37.2604 20.7063 37.0699V36.9747C20.6791 36.7299 20.6587 36.4851 20.6315 36.2335V36.2063C20.6111 36.0294 20.6315 36.009 20.8083 35.9954C20.9375 35.9954 21.0599 35.9614 21.1891 35.9478L21.6312 35.8934L22.2704 35.8322" fill="#1C1B1B"/>
<path fill-rule="evenodd" clip-rule="evenodd" d="M14.9257 38.4031C14.9665 38.4167 15.0073 38.4235 15.0481 38.4371C15.3814 38.5595 15.7282 38.6615 16.0818 38.7363C16.347 38.7907 16.6191 38.8315 16.8911 38.8791C16.9251 38.8791 16.9523 38.8791 16.9863 38.8791C17.0339 38.8791 17.0815 38.8655 17.1155 38.8315C17.1495 38.7975 17.1767 38.7567 17.1835 38.7091C17.1903 38.6615 17.1835 38.6139 17.1563 38.5731C17.1291 38.5323 17.0951 38.5051 17.0475 38.4915C16.8911 38.4439 16.7279 38.4099 16.5715 38.3759C16.2722 38.3351 15.9798 38.2535 15.7078 38.1311C15.5514 38.0699 15.4154 37.9679 15.3065 37.8386C15.1977 37.7094 15.1161 37.5666 15.0753 37.4034C15.0209 37.1858 15.0141 36.9614 15.0549 36.7369C15.0889 36.4581 15.1841 36.1861 15.327 35.9345C15.5038 35.6489 15.769 35.438 16.0818 35.336C16.3334 35.2408 16.5987 35.2 16.8639 35.2136C17.0679 35.2272 17.2651 35.2544 17.4691 35.2816C17.9384 35.3632 18.394 35.4856 18.8429 35.642C19.0673 35.7101 19.2849 35.7985 19.4889 35.8869C19.6113 35.9345 19.6113 35.9481 19.5841 36.0773C19.5297 36.3493 19.4821 36.6145 19.4277 36.8866C19.4141 36.9546 19.4005 37.0294 19.3801 37.0906C19.3597 37.1586 19.3393 37.179 19.2645 37.1586C19.1897 37.1382 19.1149 37.111 19.0401 37.0838C18.7681 36.9886 18.496 36.8934 18.224 36.805C17.9384 36.7029 17.6392 36.6417 17.3399 36.6417C17.2855 36.6417 17.2243 36.6553 17.1767 36.6757C17.1495 36.6893 17.1223 36.7097 17.1087 36.7369C17.0883 36.7642 17.0815 36.7914 17.0747 36.8254C17.0747 36.8594 17.0747 36.8866 17.0883 36.9138C17.1019 36.941 17.1223 36.9682 17.1427 36.9886C17.2039 37.0362 17.2719 37.0702 17.3467 37.0906C17.5304 37.1382 17.7208 37.1654 17.9044 37.2062C18.2444 37.2606 18.5708 37.4034 18.8429 37.6142C18.9789 37.7298 19.0809 37.8795 19.1217 38.0563C19.1693 38.2127 19.1965 38.3759 19.2101 38.5391C19.2101 38.6887 19.1965 38.8383 19.1625 38.9812C19.1285 39.2396 19.0469 39.4844 18.9245 39.7088C18.7817 39.9876 18.5368 40.2053 18.2376 40.3073C17.8908 40.4297 17.5167 40.4705 17.1563 40.4229C16.7075 40.3685 16.2586 40.2869 15.8166 40.1713C15.4562 40.0829 15.1025 39.9604 14.7625 39.8108C14.6605 39.77 14.6401 39.7292 14.6605 39.6068C14.6809 39.4844 14.7081 39.328 14.7353 39.192C14.7829 38.9471 14.8373 38.7023 14.8849 38.4643C14.8917 38.4439 14.8985 38.4235 14.9121 38.4099" fill="#1C1B1B"/>
<path fill-rule="evenodd" clip-rule="evenodd" d="M10.8045 38.0015L10.8997 37.8043C11.0017 37.5799 11.1037 37.3691 11.2125 37.1583C11.3894 36.8046 11.5798 36.451 11.7566 36.0974C11.981 35.6553 12.1986 35.1861 12.4367 34.7304L12.8515 33.9008C12.8515 33.9008 12.8787 33.8532 12.8923 33.8328C12.9467 33.7444 12.9807 33.7308 13.0759 33.7784C13.2255 33.8464 13.3683 33.9212 13.518 34.0028C13.858 34.1796 14.198 34.3564 14.5448 34.54C14.6605 34.6012 14.6605 34.608 14.5992 34.7236C14.4496 35.0161 14.3068 35.3085 14.1572 35.6145C13.9328 36.077 13.7016 36.5462 13.4703 37.0087C13.2051 37.5391 12.9263 38.0627 12.6543 38.5932C12.6135 38.668 12.5863 38.7496 12.5455 38.8176C12.5047 38.8856 12.4911 38.8992 12.4094 38.8584L11.675 38.4844L10.9541 38.1104C10.9065 38.0832 10.8657 38.0559 10.8045 38.0287" fill="#1C1B1B"/>
<path fill-rule="evenodd" clip-rule="evenodd" d="M37.9459 10.3571C37.8983 10.3707 37.8507 10.3911 37.8031 10.4115L36.5721 11.078C36.3273 11.2072 36.0893 11.3364 35.8445 11.4656C35.5521 11.6288 35.2528 11.792 34.9604 11.9621C34.8584 12.0165 34.8516 12.0165 34.7836 11.9144L34.7224 11.8124C34.7224 11.8124 34.7224 11.7852 34.7224 11.7716C34.7768 11.7172 34.8244 11.6492 34.8856 11.5948C35.1508 11.35 35.4228 11.1052 35.6949 10.8672C35.8717 10.7039 36.0417 10.5407 36.2253 10.3775L37.0006 9.67024C37.1026 9.57503 37.2046 9.48663 37.3066 9.39142C37.3406 9.35741 37.3678 9.32341 37.395 9.28261C37.3678 9.26901 37.3338 9.26901 37.3066 9.28261C37.2794 9.28941 37.2522 9.30981 37.2318 9.33021C36.9802 9.51383 36.7354 9.70425 36.4837 9.88106C36.0689 10.1803 35.6473 10.4795 35.2324 10.7719L34.5524 11.2616C34.43 11.35 34.4028 11.3432 34.3279 11.2208L34.1647 10.976C35.4092 10.0851 36.6538 9.201 37.9119 8.31012L38.3403 8.91537L37.3202 9.84706C36.9938 10.1531 36.6538 10.4455 36.3273 10.7447C36.3341 10.7515 36.3477 10.7583 36.3545 10.7651C36.3681 10.7651 36.3749 10.7719 36.3885 10.7719C36.4021 10.7719 36.4089 10.7719 36.4225 10.7651C36.4361 10.7651 36.4429 10.7515 36.4497 10.7447L37.8031 10.0103L38.6463 9.56143C38.6463 9.56143 38.6939 9.54103 38.7279 9.52743C38.8776 9.71785 39.0204 9.91507 39.1428 10.1259C39.1292 10.1463 39.1156 10.1599 39.102 10.1803L38.4219 10.6631L37.7827 11.1256L36.7422 11.8668L35.5657 12.7169L35.4773 12.7781C35.4773 12.7781 35.4568 12.7917 35.4432 12.7985C35.4296 12.7985 35.416 12.7985 35.4024 12.7985C35.3888 12.7985 35.3752 12.7917 35.3684 12.7849C35.3548 12.7781 35.348 12.7645 35.3412 12.7577C35.2936 12.6897 35.2392 12.6217 35.1916 12.5537C35.144 12.4857 35.144 12.4381 35.2188 12.3837C35.5861 12.1117 35.9533 11.8464 36.3273 11.5812C36.7558 11.282 37.1842 10.9828 37.6126 10.6903C37.6943 10.6359 37.7827 10.5747 37.8643 10.5203C37.8983 10.4931 37.9323 10.4591 37.9663 10.4251L37.9391 10.3843" fill="#1C1B1B"/>
<path fill-rule="evenodd" clip-rule="evenodd" d="M7.8055 11.6154C7.7375 11.7514 7.67629 11.8738 7.61509 11.9962C7.60148 12.0166 7.58788 12.0302 7.56748 12.037C7.54708 12.0438 7.52668 12.037 7.50628 12.037C7.37026 11.9962 7.23425 11.9554 7.09824 11.9146L6.35697 11.6902C6.11215 11.6222 5.87413 11.5474 5.62931 11.4658C5.38448 11.3842 5.09886 11.2958 4.83363 11.2074C4.79283 11.2074 4.75883 11.2074 4.71802 11.2074C4.73162 11.2958 4.79283 11.3162 4.84043 11.3434C5.19407 11.527 5.5477 11.7106 5.90133 11.901C6.32977 12.1391 6.75821 12.3839 7.18665 12.6219L7.24105 12.6627C7.20025 12.7919 7.13224 12.9143 7.04383 13.0163C7.03023 13.0367 6.97583 13.0367 6.94863 13.0299C6.90102 13.0095 6.85342 12.9823 6.80581 12.9551L5.22127 12.0642L4.16037 11.459L3.16748 10.8809L3.13348 10.8605C3.01787 10.7857 3.01107 10.7721 3.08588 10.6497C3.11988 10.5953 3.14708 10.5341 3.18789 10.4797C3.24229 10.3913 3.25589 10.3845 3.3579 10.4117L3.96996 10.5885C4.38479 10.7109 4.79283 10.8265 5.20767 10.9557C5.47969 11.0374 5.75852 11.1258 6.03054 11.2142C6.07135 11.2278 6.11215 11.2346 6.15295 11.2414L6.16655 11.2074C6.16655 11.2074 6.12575 11.1598 6.09855 11.1462C5.72451 10.9489 5.34368 10.7517 4.96965 10.5545C4.69082 10.4049 4.412 10.2417 4.13317 10.0853L3.71833 9.84725C3.59592 9.77924 3.58232 9.75204 3.65033 9.62283C3.67753 9.56842 3.70473 9.52082 3.73193 9.47321C3.78634 9.378 3.79994 9.3712 3.89515 9.41881C4.04476 9.49362 4.18078 9.57522 4.33039 9.65683L5.78572 10.4797L7.11864 11.2278L7.8123 11.629L7.8055 11.6154Z" fill="#1C1B1B"/>
<path fill-rule="evenodd" clip-rule="evenodd" d="M40.7544 13.819C40.802 13.9686 40.836 14.0911 40.8768 14.2135C40.8836 14.2407 40.8768 14.2679 40.8768 14.2951C40.8632 14.3223 40.8428 14.3359 40.8224 14.3495L40.3328 14.6351C40.1831 14.7235 40.0403 14.8187 39.8907 14.9071L38.8366 15.526C38.7074 15.6008 38.5782 15.6756 38.449 15.7504C38.415 15.7776 38.381 15.798 38.3538 15.832L38.3674 15.8592C38.3674 15.8592 38.415 15.8592 38.4354 15.8592L39.1018 15.6212L40.1559 15.2608L40.7476 15.0635C40.8632 15.0227 40.972 14.9955 41.1012 14.9547C41.1216 14.9887 41.142 15.0295 41.1624 15.0703C41.1896 15.1384 41.2032 15.2064 41.2304 15.2676C41.2576 15.3288 41.244 15.3628 41.1828 15.3832C41.0944 15.4172 40.9992 15.4512 40.9108 15.4852L39.2311 16.0632L37.6193 16.5937L37.0549 16.7841C36.9189 16.8317 36.8984 16.8181 36.8508 16.6821C36.8236 16.6141 36.8032 16.5393 36.7828 16.4577C36.7828 16.4441 36.776 16.4305 36.7692 16.4169C36.7692 16.4033 36.7692 16.3897 36.7692 16.3761C36.7692 16.3625 36.7828 16.3489 36.7896 16.3421C36.7964 16.3285 36.81 16.3217 36.8236 16.3149L37.7077 15.764C37.8301 15.6892 37.9593 15.6076 38.0818 15.5396L38.823 15.1179C38.9522 15.0499 39.0746 14.9751 39.2039 14.8935C39.2447 14.8663 39.2787 14.8391 39.3127 14.8051C39.2515 14.7507 39.2107 14.7847 39.1767 14.8051L38.1838 15.1656C38.0478 15.2132 37.9049 15.2608 37.7689 15.3016L36.7488 15.6416C36.7488 15.6416 36.6808 15.662 36.6468 15.6756C36.5652 15.6892 36.5312 15.6756 36.504 15.594C36.47 15.5124 36.436 15.3968 36.3952 15.2744C37.8437 14.7779 39.2991 14.3291 40.768 13.819" fill="#1C1B1B"/>
<path fill-rule="evenodd" clip-rule="evenodd" d="M6.20738 29.2765C6.13257 29.2765 6.07817 29.3241 6.02376 29.3649C5.75174 29.5689 5.47971 29.7729 5.20089 29.9769C4.77245 30.283 4.34401 30.5822 3.91557 30.8746C3.81356 30.9494 3.79996 30.9426 3.72516 30.8406C3.65035 30.7386 3.61635 30.6842 3.54834 30.5958C3.58234 30.5618 3.61635 30.5346 3.65035 30.5074L4.88806 29.6369L6.4386 28.542L7.20027 28.0116C7.30228 27.9436 7.31588 27.9436 7.39069 28.0456C7.43829 28.1068 7.47909 28.1816 7.5267 28.2428C7.5471 28.2632 7.5607 28.2972 7.5607 28.3244C7.5607 28.3516 7.5471 28.3856 7.5267 28.406C7.47909 28.4604 7.43149 28.5216 7.37709 28.576L6.73783 29.2833C6.54741 29.4941 6.35699 29.7049 6.16658 29.9089C6.01696 30.0722 5.86055 30.2218 5.72454 30.3782C5.69733 30.4122 5.67013 30.453 5.64293 30.4938C5.69733 30.5346 5.73134 30.4938 5.75854 30.4802L6.56781 29.8953C6.64262 29.8409 6.72423 29.7797 6.80583 29.7185L7.89393 28.9569C7.92794 28.9365 7.96194 28.9161 8.00274 28.9024C8.07755 29.0045 8.14556 29.1065 8.22716 29.2085C8.26117 29.2561 8.22716 29.2901 8.19316 29.3241C8.08435 29.4057 7.96874 29.4873 7.85993 29.5689C7.5131 29.8137 7.15947 30.0518 6.81264 30.2898C6.3842 30.589 5.96256 30.895 5.53412 31.1943C5.22809 31.4187 4.91526 31.6227 4.60924 31.8403C4.56843 31.8607 4.53443 31.8811 4.49363 31.8947C4.41882 31.7859 4.33721 31.6703 4.26921 31.5683C4.2352 31.5207 4.2692 31.4799 4.29641 31.4459C4.35761 31.3779 4.41882 31.3031 4.48002 31.2351L5.12608 30.5278C5.2757 30.3646 5.41851 30.1946 5.56812 30.0314C5.71774 29.8681 5.92175 29.6641 6.10537 29.4805C6.15978 29.4193 6.21418 29.3581 6.26859 29.2969L6.24138 29.2697" fill="#1C1B1B"/>
<path fill-rule="evenodd" clip-rule="evenodd" d="M2.3242 21.6941C2.365 21.6941 2.40581 21.6941 2.45341 21.6941L3.49391 21.5853C3.69112 21.5649 3.88834 21.5309 4.08556 21.5173C4.28278 21.4969 4.5412 21.4765 4.77242 21.4629C4.88803 21.4629 4.99684 21.4357 5.11925 21.4289C5.24166 21.4289 5.26207 21.4289 5.26207 21.5717V21.8437C5.15326 21.8845 5.03765 21.9117 4.92204 21.9049C4.62961 21.939 4.33038 21.9594 4.03796 21.9798C3.86794 21.9934 3.69112 22.0002 3.52111 22.0138L2.38541 22.1158C2.20859 22.1294 2.03177 22.143 1.85496 22.1498L1.71895 22.1634C1.38572 22.211 1.05248 22.2314 0.712454 22.2314C0.66485 22.1294 0.644448 22.0138 0.651249 21.8981C0.651249 21.8097 0.678451 21.7757 0.760058 21.7485L1.86856 21.4085C2.14738 21.3201 2.43301 21.2249 2.71184 21.1365C2.93626 21.0685 3.16748 21.0073 3.3987 20.9393C3.4531 20.9257 3.50071 20.8985 3.54831 20.8849C3.53471 20.81 3.49391 20.8169 3.4531 20.8237L2.43981 20.9461C2.3106 20.9597 2.18819 20.9665 2.05898 20.9801L1.35851 21.0549C1.13409 21.0753 0.930074 21.0957 0.712454 21.1093C0.590043 21.1093 0.576442 21.0957 0.569641 20.9733V20.7488C0.569641 20.6808 0.596844 20.6672 0.644448 20.6604L1.05248 20.6264L1.34491 20.5992L2.05898 20.5448L2.22899 20.5312L2.55542 20.504L3.20148 20.436L3.55511 20.402L4.22157 20.334H4.28958L5.05805 20.2796C5.11245 20.2796 5.13966 20.3 5.14646 20.3544C5.14646 20.4496 5.16686 20.5448 5.18046 20.6468C5.18046 20.6808 5.18046 20.7216 5.15326 20.7488C5.13285 20.776 5.09885 20.7964 5.06485 20.8032L4.79962 20.8917C4.5072 20.9869 4.22157 21.0753 3.92915 21.1637L2.44661 21.6057C2.39901 21.6193 2.365 21.6397 2.3174 21.6533V21.7077" fill="#1C1B1B"/>
<path fill-rule="evenodd" clip-rule="evenodd" d="M37.1433 18.7563C37.0957 18.6339 37.0753 18.4979 37.0889 18.3687C37.0889 18.3551 37.0889 18.3483 37.0889 18.3347C37.0889 18.3211 37.1025 18.3143 37.1093 18.3075C37.1161 18.3007 37.1297 18.2939 37.1365 18.2871C37.1501 18.2871 37.1569 18.2871 37.1705 18.2871L37.9321 18.2055L38.8162 18.1103L39.4827 18.0491L39.9587 17.9947L40.6456 17.9199L41.21 17.8655C41.3188 17.8655 41.4344 17.8451 41.5297 17.8383C41.6249 17.8383 41.6589 17.8519 41.6793 17.9607C41.6997 18.0695 41.7201 18.1851 41.7337 18.3007C41.7473 18.4707 41.7609 18.6475 41.7677 18.8175C41.7677 18.94 41.7405 19.0556 41.6793 19.1576C41.6181 19.2596 41.5229 19.3412 41.414 19.3888C41.2848 19.4568 41.1556 19.4976 41.0128 19.5248C40.7884 19.5724 40.5572 19.5996 40.3327 19.5996C40.1831 19.5996 40.0335 19.5792 39.8907 19.5384C39.8295 19.518 39.7683 19.484 39.7139 19.45C39.6731 19.4296 39.6391 19.4024 39.5983 19.3752L39.5167 19.4704C39.4215 19.5792 39.2923 19.6608 39.1562 19.6948C39.0338 19.722 38.9046 19.7424 38.7754 19.756C38.4286 19.8036 38.0749 19.8512 37.7213 19.9056C37.6057 19.926 37.4969 19.96 37.3745 19.9941C37.2997 20.0145 37.2657 19.9941 37.2521 19.9192C37.2317 19.79 37.2249 19.6676 37.2113 19.5316C37.3269 19.484 37.4493 19.45 37.5717 19.4432L38.7686 19.28C38.8094 19.28 38.8502 19.2664 38.8842 19.2528C38.9522 19.2392 39.0202 19.1984 39.061 19.144C39.1018 19.0896 39.129 19.0148 39.1222 18.94V18.7019C39.1222 18.6203 39.0814 18.5795 38.993 18.5863C38.8298 18.5999 38.6666 18.6203 38.5034 18.6407L37.9525 18.6951L37.5581 18.7291L37.1501 18.7699M40.3327 19.1032H40.5572C40.6252 19.1032 40.6864 19.0828 40.7544 19.0692C41.0468 18.9944 41.108 18.9128 41.0944 18.6271C41.0808 18.3823 41.04 18.3415 40.802 18.3687C40.5028 18.4027 40.2103 18.4367 39.9179 18.4707C39.8295 18.4707 39.8023 18.5115 39.8023 18.5999C39.8023 18.6883 39.8227 18.7223 39.8227 18.7835C39.8227 18.8652 39.8499 18.9468 39.9111 19.008C39.9655 19.0692 40.0471 19.1032 40.1287 19.1032H40.3531" fill="#1C1B1B"/>
<path fill-rule="evenodd" clip-rule="evenodd" d="M1.18171 24.9649C1.1545 24.8561 1.1273 24.7405 1.1069 24.6453C1.06609 24.4549 1.03889 24.2645 0.984487 24.074C0.957285 23.9448 0.970886 23.8156 1.02529 23.7C1.0729 23.5844 1.1613 23.4824 1.27011 23.4076C1.43333 23.3056 1.61014 23.2308 1.80056 23.1832C2.06579 23.1152 2.33101 23.088 2.60303 23.088C2.75265 23.088 2.89546 23.1288 3.01787 23.2036C3.08588 23.2512 3.11308 23.2512 3.14708 23.1832C3.20829 23.0812 3.2831 22.9995 3.3783 22.9315C3.47351 22.8635 3.58232 22.8227 3.69793 22.8023C3.94956 22.7343 4.20798 22.6935 4.4596 22.6323C4.60922 22.5983 4.75203 22.5507 4.90164 22.5031C5.05126 22.4555 5.17367 22.4079 5.32328 22.3603C5.34368 22.3807 5.35728 22.4011 5.36408 22.4215C5.39129 22.5303 5.41849 22.6459 5.43889 22.7615C5.43889 22.7819 5.43889 22.8023 5.43889 22.8227C5.43209 22.8431 5.41169 22.8567 5.39809 22.8635C5.32328 22.8975 5.25527 22.9179 5.17367 22.9383C4.80643 23.0267 4.4324 23.1016 4.06517 23.19C3.96316 23.2172 3.86115 23.2512 3.76594 23.2988C3.69793 23.326 3.64353 23.3804 3.60952 23.4484C3.57552 23.5164 3.56872 23.5912 3.58912 23.666C3.60272 23.7272 3.60953 23.7884 3.62993 23.8496C3.62993 23.8632 3.62993 23.8836 3.64353 23.8972C3.65033 23.9108 3.66393 23.9244 3.67753 23.9312C3.69113 23.938 3.70473 23.9448 3.71833 23.9448C3.73194 23.9448 3.75234 23.9448 3.76594 23.9448C3.86115 23.9312 3.95636 23.9108 4.05156 23.8904L4.90844 23.7136L5.41169 23.598C5.44569 23.5912 5.47969 23.5844 5.5137 23.5844C5.5273 23.5844 5.5409 23.5844 5.5477 23.5844C5.5613 23.5844 5.5681 23.5912 5.5817 23.598C5.5885 23.6048 5.60211 23.6116 5.60891 23.6252C5.60891 23.6388 5.61571 23.6456 5.61571 23.6592C5.62931 23.7476 5.64971 23.8428 5.66331 23.9312C5.67691 24.0196 5.62931 24.0264 5.5681 24.0332L5.09206 24.1353L4.00396 24.3665C3.65713 24.4413 3.3103 24.5093 2.96347 24.5909L1.80056 24.8493C1.61694 24.8901 1.43333 24.9173 1.24971 24.9513H1.1681M1.65095 23.9788C1.65095 24.0332 1.65095 24.0876 1.66455 24.1421C1.66455 24.1761 1.67815 24.2101 1.69175 24.2441C1.73256 24.3529 1.75296 24.3665 1.86857 24.3461L2.86826 24.1217C2.96347 24.1012 2.99067 24.0604 2.97027 23.9584C2.97027 23.904 2.93626 23.8496 2.92946 23.7884C2.92266 23.734 2.89546 23.6796 2.86146 23.6388C2.82745 23.598 2.77305 23.5708 2.71864 23.5572C2.65064 23.53 2.56903 23.5232 2.49422 23.5232C2.263 23.5368 2.03858 23.5912 1.82776 23.6864C1.76656 23.7068 1.71215 23.7408 1.67815 23.7952C1.64415 23.8496 1.63055 23.9108 1.64415 23.9788" fill="#1C1B1B"/>
<path fill-rule="evenodd" clip-rule="evenodd" d="M29.3975 6.76634C29.4519 6.62353 29.4927 6.49432 29.5471 6.37191C29.6967 6.05908 29.8463 5.74625 30.0027 5.44022C30.0639 5.31781 30.0843 5.175 30.0707 5.03899C30.0707 5.01178 30.0571 4.97778 30.0435 4.95738C29.9551 4.85537 29.8327 4.78056 29.7035 4.73296C29.6423 4.70576 29.6015 4.74656 29.5743 4.80097L29.3499 5.2294L28.7718 6.35151C28.7718 6.35151 28.7446 6.39911 28.7242 6.42631C28.5882 6.37871 28.459 6.3175 28.3434 6.2359C28.357 6.18829 28.3774 6.14069 28.3978 6.09308C28.527 5.84146 28.6562 5.59664 28.7786 5.35181C29.071 4.78056 29.3635 4.20251 29.6423 3.63126L30.2816 2.34594C30.3836 2.14873 30.3836 2.14192 30.5808 2.24393C30.778 2.34594 31.0092 2.46835 31.22 2.57036C31.3425 2.63837 31.4377 2.74038 31.4989 2.86279C31.5533 2.9852 31.5737 3.12801 31.5397 3.26403C31.4513 3.69927 31.254 4.1073 30.9684 4.44733C30.8868 4.56294 30.7644 4.63775 30.6284 4.67175C30.5332 4.69216 30.5196 4.72616 30.5672 4.81457C30.6284 4.95058 30.6352 5.10019 30.5808 5.24301C30.4924 5.48783 30.3836 5.72585 30.2544 5.95707C30.1591 6.16789 30.0503 6.37191 29.9551 6.58273C29.9143 6.68474 29.8871 6.78675 29.8599 6.88875C29.8259 6.99756 29.8055 7.01116 29.7035 6.95676L29.3771 6.77994M30.9956 3.36604C30.9956 3.31843 30.9956 3.27083 30.9684 3.23002C30.948 3.18922 30.914 3.14842 30.88 3.12121C30.812 3.07361 30.7372 3.0328 30.6556 2.9988C30.5332 2.9376 30.4992 2.9512 30.4312 3.07361C30.3428 3.25042 30.2612 3.42044 30.1727 3.59726C30.1047 3.73327 30.0299 3.86928 29.9483 4.01209C29.9075 4.0937 29.9211 4.1209 30.0027 4.16171C30.0843 4.20251 30.1523 4.22291 30.2272 4.26372C30.2612 4.28412 30.302 4.29772 30.3496 4.29772C30.3972 4.29772 30.4312 4.28412 30.472 4.26372C30.5468 4.21611 30.6148 4.16171 30.6692 4.0937C30.7848 3.93729 30.88 3.76727 30.9412 3.57685C30.9616 3.50885 30.9752 3.44764 30.9888 3.37964" fill="#1C1B1B"/>
<path fill-rule="evenodd" clip-rule="evenodd" d="M6.62891 14.016C6.62891 14.1452 6.60171 14.2676 6.5405 14.3832C6.4861 14.4988 6.39769 14.594 6.29568 14.6688C6.15287 14.7641 5.98285 14.7981 5.81964 14.7777C5.28919 14.6892 4.77914 14.526 4.3031 14.2812C3.77265 14.05 3.25581 13.7916 2.75256 13.5127C2.52814 13.3971 2.33092 13.2271 2.18811 13.0163C2.1065 12.9007 2.0657 12.7579 2.0793 12.6083C2.0929 12.4654 2.15411 12.3294 2.24931 12.2274C2.33772 12.1118 2.46013 12.0234 2.59615 11.9826C2.73216 11.935 2.88177 11.935 3.02458 11.9826C3.38502 12.0642 3.73185 12.1798 4.07188 12.3226C4.40511 12.4586 4.73834 12.6083 5.05797 12.7647C5.20758 12.8327 5.3708 12.8939 5.51361 12.9891C5.76523 13.1319 6.02366 13.2747 6.26848 13.4311C6.40449 13.5195 6.5133 13.6556 6.58131 13.8052C6.61531 13.8868 6.62891 13.982 6.64931 14.0296M5.61562 14.2268H5.69723C5.74483 14.2268 5.78563 14.2132 5.82644 14.1928C5.86724 14.1724 5.89444 14.1384 5.92165 14.0976C5.94205 14.0568 5.95565 14.0092 5.94885 13.9684C5.94885 13.9208 5.93525 13.88 5.90805 13.8392C5.86044 13.7644 5.79924 13.7032 5.73123 13.6488C5.52721 13.4991 5.30279 13.3835 5.06477 13.2883L3.68424 12.6695C3.50063 12.5947 3.31021 12.5403 3.11979 12.5062C3.05179 12.4926 2.97698 12.4994 2.91577 12.5267C2.84777 12.5539 2.80016 12.6083 2.76616 12.6695C2.74576 12.7307 2.74576 12.7987 2.76616 12.8599C2.78656 12.9211 2.82737 12.9755 2.88857 13.0027C3.00418 13.1047 3.13339 13.1931 3.26941 13.2679C3.52783 13.3971 3.79305 13.5059 4.05148 13.6284C4.41191 13.7916 4.76554 13.9548 5.12597 14.1112C5.28239 14.1928 5.4524 14.2336 5.62242 14.2336" fill="#1C1B1B"/>
<path fill-rule="evenodd" clip-rule="evenodd" d="M37.2589 22.7346L37.1161 22.6122C37.0345 22.5578 36.9801 22.4694 36.9597 22.3742C36.9325 22.2789 36.9461 22.1769 36.9869 22.0885C37.0413 21.9729 37.1229 21.8709 37.2249 21.7961C37.3269 21.7213 37.4426 21.6737 37.5718 21.6601C37.6806 21.6329 37.7962 21.6261 37.9118 21.6125C37.9458 21.6125 37.973 21.6125 38.007 21.6125C38.3198 21.6329 38.6327 21.6465 38.9455 21.6669C39.0951 21.6669 39.2447 21.7077 39.3875 21.7213C39.68 21.7553 39.9656 21.7825 40.258 21.8233C40.6116 21.8573 40.9585 21.9457 41.2849 22.0749C41.4277 22.1361 41.5501 22.2245 41.6385 22.347C41.6861 22.4082 41.7201 22.483 41.7405 22.5578C41.7609 22.6326 41.7609 22.7142 41.7405 22.789C41.7269 22.8842 41.7065 22.9794 41.6793 23.0746C41.6521 23.1426 41.6181 23.197 41.5705 23.2514C41.5229 23.299 41.4617 23.3398 41.4005 23.367C41.2577 23.4351 41.1013 23.4759 40.9449 23.4895C40.8225 23.4895 40.7 23.5167 40.5776 23.5167C40.462 23.5167 40.3464 23.5031 40.2308 23.4895C40.1628 23.4895 40.1288 23.4419 40.1356 23.367C40.1356 23.2922 40.1492 23.2174 40.1628 23.1426C40.1764 23.0678 40.1968 23.0338 40.2852 23.0338C40.3736 23.0338 40.4416 23.0474 40.5232 23.0474C40.6252 23.0474 40.7272 23.0338 40.8225 23.0134C40.8905 22.9998 40.9517 22.9658 40.9925 22.9182C41.0401 22.8706 41.0673 22.8026 41.0741 22.7414C41.0741 22.6734 41.0469 22.6122 41.0061 22.5578C40.9653 22.5034 40.9109 22.4626 40.8497 22.4422C40.7204 22.3878 40.5912 22.3538 40.4552 22.3266C40.156 22.2857 39.8568 22.2653 39.5711 22.2313C39.4079 22.2109 39.2447 22.1905 39.0883 22.1769C38.9251 22.1565 38.7619 22.1429 38.5987 22.1293C38.4354 22.1157 38.2926 22.1089 38.1362 22.1089C38.0002 22.1089 37.8642 22.1361 37.7418 22.2041C37.7146 22.2177 37.6874 22.2381 37.667 22.2653C37.6466 22.2926 37.633 22.3198 37.6262 22.347C37.6262 22.3742 37.6262 22.4082 37.6262 22.4422C37.633 22.4694 37.6466 22.5034 37.667 22.5238C37.7078 22.585 37.769 22.6326 37.837 22.6598C38.0206 22.721 38.2042 22.7754 38.3946 22.823C38.483 22.8434 38.5715 22.857 38.6531 22.8638C38.7687 22.8774 38.8027 22.8434 38.8163 22.7278C38.8435 22.5578 38.8367 22.5306 39.0475 22.5578C39.1495 22.5714 39.2583 22.5918 39.3603 22.6054C39.4623 22.619 39.4895 22.6462 39.4827 22.755C39.4691 22.9318 39.4487 23.1086 39.4283 23.2854C39.4283 23.299 39.4283 23.3058 39.4215 23.3194C39.4215 23.3262 39.4079 23.3398 39.4011 23.3466C39.3943 23.3534 39.3807 23.3602 39.3739 23.3602C39.3603 23.3602 39.3535 23.3602 39.3399 23.3602H38.9523C38.7279 23.3398 38.5102 23.3126 38.2858 23.2854C38.211 23.2854 38.1362 23.2514 38.0614 23.231C38.0138 23.2174 37.9594 23.2038 37.905 23.2038C37.6126 23.2174 37.3269 23.2038 37.0413 23.1494C36.9529 23.1494 36.9393 23.1154 36.9529 23.027C36.9529 22.9862 36.9529 22.9454 36.9665 22.9114C36.9665 22.823 36.9937 22.8094 37.0821 22.8094C37.1297 22.8094 37.1909 22.8434 37.2317 22.755" fill="#1C1B1B"/>
<path fill-rule="evenodd" clip-rule="evenodd" d="M41.2101 25.0126C41.1761 25.135 41.1557 25.237 41.1217 25.3458C41.0877 25.4614 41.0673 25.4342 40.9857 25.4138L40.36 25.237C40.0608 25.1554 39.7683 25.067 39.4759 24.9854C39.3671 24.9582 39.3399 24.9718 39.3059 25.0738C39.2583 25.2166 39.2243 25.3526 39.1903 25.4954C39.1699 25.5838 39.1903 25.6179 39.2787 25.6451C39.4691 25.7063 39.6595 25.7539 39.85 25.8151C40.1628 25.9103 40.4756 25.9987 40.7952 26.0939C40.8905 26.1211 40.8973 26.1347 40.8768 26.2299C40.8632 26.3047 40.8428 26.3795 40.8224 26.4543C40.7884 26.5427 40.7612 26.5563 40.6728 26.5359C40.632 26.5359 40.598 26.5155 40.5572 26.5019L39.0067 26.0599L37.3133 25.5702L36.4973 25.3458C36.368 25.3118 36.3612 25.2982 36.3952 25.169C36.4088 25.1078 36.4292 25.0398 36.4564 24.9786C36.5041 24.8562 36.5109 24.8562 36.6265 24.8902L37.1093 25.033C37.3337 25.0942 37.5377 25.169 37.7554 25.2302C37.973 25.2914 38.1838 25.3526 38.3946 25.407C38.483 25.4342 38.5238 25.407 38.5442 25.3322C38.5918 25.1826 38.6326 25.033 38.6666 24.8902C38.6871 24.8086 38.6667 24.7678 38.5714 24.7406C38.3878 24.6862 38.211 24.625 38.0274 24.5706L36.8441 24.2237C36.7897 24.2033 36.7285 24.1761 36.6809 24.1489C36.7149 24.0333 36.7421 23.9245 36.7761 23.8225C36.7761 23.8089 36.7829 23.8021 36.7897 23.7885C36.7965 23.7817 36.8033 23.7681 36.8169 23.7613C36.8305 23.7613 36.8373 23.7545 36.8509 23.7477C36.8645 23.7477 36.8781 23.7477 36.8849 23.7477C36.9461 23.7613 37.0073 23.7749 37.0617 23.7953L38.5646 24.2237C38.7891 24.2849 38.9999 24.3529 39.2175 24.4141L39.9044 24.6114L40.1288 24.6794L40.9925 24.931C41.0605 24.9514 41.1285 24.9786 41.2169 25.0058" fill="#1C1B1B"/>
<path fill-rule="evenodd" clip-rule="evenodd" d="M11.3962 2.80152C11.3962 2.66551 11.437 2.5295 11.5118 2.41389C11.5866 2.29828 11.6954 2.20987 11.8246 2.15547C11.9403 2.09426 12.0695 2.07386 12.1987 2.09426C12.3279 2.11466 12.4435 2.17587 12.5387 2.26427C12.7291 2.42749 12.8923 2.62471 13.0148 2.84913C13.1508 3.07355 13.2868 3.27757 13.4092 3.49519C13.5112 3.6652 13.5928 3.84882 13.6812 4.02563C13.8172 4.29086 13.9532 4.54928 14.0756 4.82131C14.1777 5.03893 14.2593 5.26335 14.3341 5.48777C14.3953 5.66458 14.4021 5.855 14.3545 6.03862C14.3341 6.11342 14.3001 6.18143 14.2593 6.23583C14.1369 6.37865 13.9736 6.48066 13.79 6.52146C13.688 6.54866 13.5792 6.54186 13.484 6.50106C13.2732 6.41945 13.0896 6.27664 12.9535 6.09302C12.8039 5.9026 12.6747 5.69859 12.5591 5.48097C12.3959 5.16814 12.2191 4.86891 12.0559 4.55608C11.8314 4.14805 11.641 3.71961 11.4846 3.28437C11.4302 3.12795 11.3962 2.96474 11.3894 2.80152H11.3962ZM13.8172 5.56937H13.8308C13.8104 5.46056 13.7764 5.34495 13.7356 5.24294C13.5656 4.86891 13.3752 4.50848 13.1916 4.14805C13.0692 3.90322 12.9399 3.6584 12.8107 3.42038C12.7087 3.18916 12.5591 2.98514 12.3687 2.82193C12.3347 2.78792 12.2871 2.76072 12.2327 2.75392C12.1851 2.74712 12.1307 2.75392 12.0831 2.78112C12.0355 2.80152 11.9947 2.84233 11.9675 2.88993C11.9403 2.93754 11.9335 2.99194 11.9403 3.04635C11.9539 3.16876 11.9743 3.29117 12.0083 3.40678C12.1375 3.74681 12.3007 4.07324 12.4775 4.38607C12.5863 4.61049 12.7019 4.82131 12.8243 5.03213C12.9467 5.24294 13.0488 5.44016 13.1848 5.63738C13.246 5.72579 13.3344 5.80059 13.4296 5.8618C13.4636 5.889 13.5044 5.9026 13.552 5.9094C13.5928 5.9094 13.6404 5.9094 13.6812 5.889C13.722 5.8686 13.756 5.8414 13.7764 5.8074C13.8036 5.77339 13.8104 5.72579 13.8172 5.68498C13.8172 5.65098 13.8172 5.62378 13.8172 5.58978V5.56937Z" fill="#1C1B1B"/>
<path fill-rule="evenodd" clip-rule="evenodd" d="M29.2547 2.00601C29.2411 2.29164 29.1867 2.57726 29.0915 2.84929C28.9487 3.26412 28.8058 3.67896 28.6494 4.087C28.4998 4.50184 28.3162 4.90987 28.0986 5.29071C28.0034 5.46752 27.8742 5.61714 27.7177 5.74635C27.6429 5.80755 27.5545 5.84836 27.4661 5.86876C27.3709 5.88916 27.2757 5.88916 27.1805 5.86196C27.1057 5.84156 27.0309 5.82116 26.9561 5.78715C26.8541 5.73955 26.7657 5.66474 26.7045 5.56273C26.6432 5.46752 26.6092 5.35191 26.6092 5.2431C26.6024 4.96428 26.6432 4.68545 26.7453 4.42023C26.8677 4.0666 26.9901 3.71977 27.1261 3.37293C27.3097 2.89009 27.5205 2.41405 27.7517 1.95161C27.8674 1.72038 28.0374 1.52317 28.2482 1.37355C28.3162 1.31915 28.4046 1.28514 28.493 1.27834C28.5814 1.26474 28.6698 1.27834 28.7514 1.31235C28.867 1.34635 28.9759 1.40756 29.0643 1.49596C29.1459 1.58437 29.2071 1.69318 29.2343 1.81559C29.2479 1.8836 29.2479 1.95841 29.2547 1.99921M27.1125 4.85547C27.1193 4.91667 27.1329 4.97788 27.1465 5.03908C27.1465 5.07309 27.1601 5.10029 27.1805 5.13429C27.2009 5.1615 27.2213 5.1887 27.2485 5.2023C27.2757 5.2159 27.3097 5.2295 27.3437 5.2363C27.3777 5.2363 27.4117 5.2363 27.4389 5.2227C27.5069 5.2023 27.5681 5.1683 27.6157 5.11389C27.6905 5.03228 27.7517 4.94388 27.7994 4.84187C27.9626 4.47463 28.1326 4.1074 28.2754 3.73337C28.4182 3.35933 28.5474 3.0125 28.6698 2.64527C28.7378 2.48205 28.7514 2.29844 28.7106 2.12162C28.7038 2.08762 28.6902 2.06042 28.6698 2.03321C28.6494 2.00601 28.6222 1.98561 28.595 1.97201C28.5678 1.95841 28.5338 1.95161 28.4998 1.9448C28.4658 1.9448 28.4386 1.9448 28.4046 1.95841C28.3298 1.99241 28.2618 2.04681 28.2074 2.10802C28.0782 2.26443 27.9762 2.44805 27.9082 2.63847C27.7721 2.9649 27.6497 3.29133 27.5205 3.61096C27.4253 3.86258 27.3233 4.1142 27.2349 4.36582C27.1805 4.52904 27.1397 4.69905 27.0989 4.84187L27.1125 4.85547Z" fill="#1C1B1B"/>
<path fill-rule="evenodd" clip-rule="evenodd" d="M34.7087 4.97159C34.7971 5.03959 34.872 5.0872 34.9468 5.1484C35.0216 5.20961 35.0352 5.25721 34.9672 5.34562L34.1715 6.35891C33.9335 6.66494 33.6954 6.97777 33.4574 7.2838C33.1786 7.65783 32.8998 8.02506 32.6142 8.3923C32.4985 8.54191 32.3897 8.68472 32.2673 8.83434C32.1313 8.77313 32.0089 8.68472 31.9069 8.56911C31.9205 8.54191 31.9341 8.50791 31.9545 8.48071L32.4509 7.82785L33.0494 7.04578C33.0494 7.04578 33.097 6.97777 33.1174 6.95057C33.1242 6.94377 33.131 6.93017 33.1378 6.91656C33.1378 6.90296 33.1378 6.88936 33.1378 6.87576C33.1378 6.86216 33.131 6.84856 33.1242 6.83496C33.1174 6.82136 33.1038 6.81455 33.097 6.80775L32.7026 6.51533C32.7026 6.51533 32.6822 6.49493 32.6686 6.49493C32.655 6.49493 32.6414 6.49493 32.6278 6.49493C32.6142 6.49493 32.6006 6.50173 32.5869 6.50853C32.5733 6.51533 32.5665 6.52893 32.5597 6.54253L32.3217 6.84176C32.1925 7.00497 32.0633 7.16819 31.9341 7.3314C31.7709 7.55582 31.6009 7.77344 31.4376 7.99786C31.4172 8.02506 31.3968 8.05227 31.3696 8.07267C31.356 8.07267 31.3424 8.07947 31.3288 8.07947C31.3152 8.07947 31.3016 8.07947 31.288 8.07267C31.1724 8.01146 31.0772 7.92305 30.9956 7.82105C31.0772 7.70544 31.152 7.59663 31.2404 7.48101C31.5329 7.10018 31.8321 6.72615 32.1245 6.34531C32.2945 6.12089 32.4781 5.91687 32.6482 5.69245C32.8726 5.40683 33.0902 5.1144 33.3146 4.82878C33.471 4.63156 33.6206 4.44114 33.7839 4.23712C33.8995 4.31193 34.0151 4.39354 34.1171 4.48194C34.0967 4.52955 34.0695 4.57035 34.0423 4.61116L33.4098 5.41363C33.301 5.54964 33.199 5.68565 33.097 5.82847C33.0834 5.83527 33.0766 5.84887 33.0698 5.86247C33.0698 5.87607 33.063 5.88967 33.063 5.90327C33.063 5.91687 33.063 5.93047 33.0698 5.94408C33.0698 5.95768 33.0834 5.97128 33.097 5.97808C33.1514 6.02568 33.2126 6.07329 33.2738 6.12089L33.4642 6.26371C33.5526 6.32491 33.5866 6.32491 33.6546 6.2433C33.8519 5.99848 34.0423 5.74686 34.2395 5.50204C34.3891 5.31842 34.5387 5.1348 34.7019 4.93759" fill="#1C1B1B"/>
<path fill-rule="evenodd" clip-rule="evenodd" d="M36.1844 6.28394L36.4701 6.59676C36.3749 6.68517 36.2865 6.76678 36.1981 6.84839L35.5996 7.37203L34.7155 8.16091C34.4707 8.38533 34.2259 8.58254 33.9879 8.80016C33.845 8.91577 33.7294 9.05859 33.6478 9.2218C33.6206 9.26941 33.607 9.32381 33.6138 9.38502C33.6138 9.43942 33.641 9.49383 33.6818 9.53463C33.7158 9.58223 33.7702 9.60944 33.8246 9.62304C33.879 9.63664 33.9402 9.62984 33.9947 9.60944C34.1375 9.56183 34.2667 9.48703 34.3823 9.38502L35.6608 8.27652L36.8849 7.20882L36.9393 7.16802L37.2249 7.47404C37.1637 7.53525 37.1161 7.59645 37.0617 7.64406L36.3409 8.29012L35.416 9.11299C35.144 9.35101 34.8719 9.59584 34.5999 9.83386C34.4163 9.99027 34.2123 10.1195 33.9811 10.2011C33.539 10.3643 33.2058 10.2011 33.0086 9.75905C32.9746 9.67744 32.9542 9.58223 32.961 9.49383C32.961 9.40542 32.9882 9.31701 33.0358 9.2354C33.1582 8.99058 33.335 8.77296 33.539 8.58934C33.777 8.36492 34.0287 8.15411 34.2803 7.94329L35.2188 7.12041L36.0552 6.38595C36.0892 6.35874 36.13 6.33154 36.1708 6.31114" fill="#1C1B1B"/>
<path fill-rule="evenodd" clip-rule="evenodd" d="M37.4017 30.2903L37.5718 29.9842C37.6058 29.9298 37.6466 29.9298 37.6942 29.957C37.803 30.0114 37.9186 30.0658 38.0342 30.1202C38.1294 30.1678 38.2382 30.1746 38.347 30.1474C38.3742 30.1406 38.4014 30.1202 38.4286 30.0998C38.449 30.0794 38.4694 30.0522 38.483 30.025C38.4966 29.9978 38.5034 29.9638 38.5034 29.9366C38.5034 29.9026 38.5034 29.8754 38.483 29.8482C38.4286 29.7598 38.3538 29.6782 38.2586 29.6238C38.143 29.5558 38.0138 29.515 37.8778 29.5014C37.7418 29.4878 37.6058 29.5014 37.4766 29.5354C37.3065 29.5762 37.1365 29.5966 36.9665 29.6238C36.8509 29.6442 36.7285 29.6646 36.6129 29.6782C36.3408 29.685 36.0756 29.6238 35.8308 29.5082C35.5928 29.3994 35.3684 29.2566 35.1643 29.0865C35.0079 28.9641 34.8923 28.8009 34.8175 28.6173C34.7767 28.5153 34.7631 28.4065 34.7767 28.2977C34.7903 28.1889 34.8243 28.0869 34.8923 27.9916C34.9535 27.9032 35.0351 27.8284 35.1371 27.774C35.2323 27.7264 35.3412 27.6992 35.45 27.6992C35.6948 27.6992 35.9328 27.7672 36.1504 27.8896C36.3136 27.9712 36.4769 28.0597 36.6401 28.1481C36.7285 28.1957 36.7353 28.2161 36.6945 28.3045C36.6469 28.3929 36.6197 28.4473 36.5789 28.5153C36.5381 28.5833 36.5041 28.5969 36.4497 28.5629C36.3544 28.5085 36.2524 28.4881 36.1572 28.4201C36.0212 28.3249 35.8648 28.2705 35.7016 28.2569C35.6608 28.2569 35.62 28.2569 35.5792 28.2773C35.5384 28.2909 35.5112 28.3181 35.484 28.3521C35.4568 28.3861 35.4432 28.4201 35.4364 28.4609C35.4364 28.5017 35.4364 28.5425 35.45 28.5833C35.484 28.6581 35.5316 28.7329 35.5928 28.7873C35.7084 28.8961 35.8512 28.9777 36.0076 29.0253C36.164 29.0729 36.3272 29.0729 36.4837 29.0457C36.7829 28.9845 37.0821 28.9301 37.3881 28.8893C37.531 28.8757 37.667 28.8893 37.8098 28.9233C38.0886 28.9845 38.3538 29.0933 38.5919 29.2498C38.8367 29.3858 39.0407 29.5898 39.1563 29.8482C39.2039 29.9706 39.2107 30.0998 39.1767 30.2222C39.1495 30.3447 39.0815 30.4603 38.9863 30.5487C38.8775 30.6439 38.7415 30.6915 38.5987 30.6983C38.313 30.6983 38.0342 30.6303 37.7826 30.4943C37.6738 30.4399 37.5582 30.3787 37.4357 30.3107" fill="#1C1B1B"/>
<path fill-rule="evenodd" clip-rule="evenodd" d="M39.9996 11.8877L40.224 12.3978C40.258 12.4726 40.2036 12.5066 40.156 12.5338L39.748 12.7922L38.6939 13.4451L38.0478 13.8327L37.3473 14.2748L36.4633 14.8188C36.4633 14.8188 36.4225 14.8392 36.4089 14.8528C36.334 14.8868 36.2864 14.8732 36.2524 14.8052C36.2184 14.7372 36.1708 14.6284 36.1368 14.5332C36.13 14.5196 36.1232 14.506 36.1232 14.4924C36.1232 14.4788 36.1232 14.4652 36.1232 14.4516C36.1232 14.438 36.1368 14.4244 36.1436 14.4176C36.1504 14.4108 36.164 14.3972 36.1776 14.3972C36.3272 14.3156 36.4701 14.2407 36.6061 14.1523C36.7421 14.0707 36.8713 13.9891 36.9937 13.9143C37.0957 13.8463 37.1025 13.8327 37.0549 13.7239C37.0073 13.6151 36.9665 13.5199 36.9189 13.4179C36.9189 13.4043 36.9053 13.3907 36.8985 13.3771C36.8917 13.3635 36.8781 13.3567 36.8645 13.3499C36.8509 13.3499 36.8373 13.3363 36.8169 13.3363C36.8033 13.3363 36.7829 13.3363 36.7693 13.3431L36.5449 13.4111L35.8784 13.6151C35.756 13.6559 35.7356 13.6491 35.6812 13.5335C35.6472 13.4655 35.62 13.3907 35.586 13.3091C35.552 13.2343 35.5588 13.2003 35.6472 13.1731L36.1436 13.0166L37.4017 12.6426C37.9798 12.4726 38.5646 12.3026 39.1495 12.1258C39.3739 12.0578 39.5915 11.9829 39.816 11.9013C39.8704 11.8877 39.918 11.8741 39.9928 11.8605M39.1903 12.6086L39.1699 12.5746C39.1699 12.5746 39.1087 12.5746 39.0815 12.5882L38.0206 12.9486C37.8982 12.9894 37.7758 13.0302 37.6602 13.0778C37.5378 13.1254 37.5378 13.1527 37.5786 13.2615C37.599 13.3159 37.6262 13.3771 37.6602 13.4247C37.6602 13.4383 37.6738 13.4519 37.6806 13.4587C37.6874 13.4655 37.701 13.4723 37.7146 13.4791C37.7282 13.4791 37.7418 13.4791 37.7554 13.4791C37.769 13.4791 37.7826 13.4723 37.7894 13.4587C37.8574 13.4111 37.939 13.3771 38.0138 13.3363L39.0679 12.7242C39.1087 12.697 39.1495 12.663 39.1903 12.629" fill="#1C1B1B"/>
<path fill-rule="evenodd" clip-rule="evenodd" d="M0.664811 18.6947C0.678412 18.5179 0.692013 18.3479 0.705615 18.1779C0.705615 18.0962 0.753219 18.0758 0.828026 18.0758C0.909633 18.0758 0.970839 18.0758 1.03884 18.0758H1.92292C2.04534 18.0758 2.16095 18.0554 2.27656 18.0554C2.39897 18.0554 2.57578 18.0554 2.7186 18.0554C3.08583 18.0554 3.45306 18.0554 3.8271 18.0282C4.29634 18.001 4.76558 18.001 5.22802 18.001C5.35724 18.001 5.37084 18.0146 5.36404 18.1371C5.36404 18.2255 5.34363 18.3139 5.33683 18.4023C5.33003 18.4907 5.28923 18.4839 5.22802 18.4839H4.26914C4.26914 18.4839 4.23513 18.4839 4.22153 18.4839C4.20793 18.4839 4.19433 18.4975 4.18073 18.5043C4.16713 18.5111 4.16033 18.5247 4.15353 18.5383C4.14673 18.5519 4.13993 18.5655 4.13993 18.5859C4.11952 18.7083 4.09912 18.8307 4.09232 18.9531C4.07872 19.0755 4.11272 19.0891 4.21473 19.1095L4.73158 19.2251C4.86079 19.2524 4.99 19.2796 5.11921 19.3136C5.24843 19.3476 5.24162 19.368 5.22122 19.4768C5.20762 19.5856 5.20082 19.6332 5.18722 19.7148C5.17362 19.7964 5.14642 19.8168 5.05801 19.7964C4.82679 19.742 4.60237 19.6876 4.37115 19.6332L3.60268 19.4428L2.7186 19.2251C2.33096 19.1299 1.94333 19.0415 1.55569 18.9463C1.27007 18.8783 0.991241 18.8035 0.705615 18.7219C0.685213 18.7151 0.664811 18.7015 0.644409 18.6879M1.6781 18.4907V18.5315C1.72571 18.5451 1.76651 18.5655 1.81412 18.5723L3.23544 18.8919C3.40546 18.9327 3.41906 18.9191 3.43946 18.7423C3.43946 18.7219 3.43946 18.7015 3.45306 18.6811C3.48027 18.5315 3.43946 18.4839 3.28985 18.4839H1.80731C1.76651 18.4839 1.72571 18.4907 1.6849 18.5043" fill="#1C1B1B"/>
<path fill-rule="evenodd" clip-rule="evenodd" d="M5.37773 7.31061C6.67665 8.17429 7.96877 8.99036 9.24728 9.83364C9.18608 9.99005 9.07727 10.1261 8.94125 10.2213C8.88685 10.1805 8.81884 10.1465 8.75764 10.1057L8.13878 9.67042C8.00957 9.58201 7.97557 9.58201 7.87356 9.70442C7.80555 9.77923 7.74435 9.86764 7.68994 9.94925C7.62873 10.0309 7.64234 10.0513 7.68994 10.1125C7.73754 10.1805 7.83955 10.2757 7.91436 10.3573L8.3224 10.7993C8.3972 10.8741 8.3972 10.9081 8.3224 10.9897C8.24759 11.0713 8.19319 11.1462 8.12518 11.221C8.12518 11.221 8.10478 11.2346 8.07757 11.2482C8.02997 11.2006 7.97557 11.1598 7.92796 11.1054L6.88067 9.93565C6.58824 9.61602 6.30261 9.28959 6.01019 8.96996C5.75857 8.69113 5.51374 8.40551 5.26212 8.12668L5.0377 7.88186C5.0377 7.88186 5.0105 7.83425 5.0105 7.80705C5.0105 7.77985 5.0241 7.75265 5.0377 7.73225C5.14651 7.59623 5.26212 7.46022 5.37773 7.31061ZM7.15269 9.51401C7.2071 9.4596 7.2683 9.412 7.30911 9.35079C7.42472 9.21478 7.41792 9.20118 7.2751 9.09917L6.07819 8.2763C6.07819 8.2763 6.03739 8.24229 6.01019 8.23549C5.98299 8.22869 5.95578 8.22189 5.92858 8.22869C6.30942 8.68433 6.71065 9.11277 7.14589 9.51401" fill="#1C1B1B"/>
<path fill-rule="evenodd" clip-rule="evenodd" d="M11.0223 6.2292C11.0767 6.3108 11.1311 6.37881 11.1787 6.45362C11.2807 6.62363 11.4099 6.77325 11.5595 6.89566C11.5867 6.91606 11.6139 6.93646 11.6479 6.95006C11.6819 6.96366 11.7159 6.96366 11.7499 6.96366C11.7839 6.96366 11.8179 6.95006 11.8451 6.92966C11.8723 6.91606 11.8995 6.88886 11.92 6.86165C11.954 6.81405 11.9744 6.75284 11.9676 6.69164C11.9472 6.52842 11.8859 6.37881 11.7907 6.2428C11.6955 6.11359 11.5663 6.00478 11.4235 5.93677C11.2807 5.87556 11.1311 5.82116 10.9815 5.78036C10.8251 5.72595 10.655 5.68515 10.5054 5.61714C10.1314 5.47433 9.81856 5.2023 9.62134 4.85547C9.53293 4.69226 9.45813 4.52904 9.38332 4.36583C9.32211 4.20941 9.30171 4.0326 9.33572 3.86938C9.34932 3.78778 9.38332 3.71297 9.43092 3.64496C9.49213 3.54295 9.58734 3.46815 9.68935 3.41374C9.79816 3.35934 9.91377 3.34574 10.0294 3.35934C10.1314 3.37974 10.2266 3.42054 10.3082 3.48175C10.5054 3.61776 10.6686 3.78097 10.7978 3.97819C10.8591 4.0598 10.9067 4.14821 10.9679 4.22982C11.0291 4.31142 11.0087 4.33182 10.9475 4.36583C10.8523 4.42703 10.7638 4.48144 10.655 4.54264C10.6074 4.46784 10.5666 4.40663 10.519 4.35223C10.4374 4.25022 10.349 4.14821 10.2538 4.0598C10.213 4.019 10.1654 3.99179 10.1042 3.98499C10.043 3.97819 9.99538 3.98499 9.94777 4.019C9.91377 4.0394 9.87977 4.0734 9.86616 4.11421C9.84576 4.15501 9.83896 4.19581 9.84576 4.24342C9.87297 4.39983 9.94097 4.54264 10.043 4.66506C10.145 4.78067 10.2878 4.86907 10.4374 4.90988C10.7162 4.99828 11.0019 5.07989 11.2875 5.1819C11.5391 5.26351 11.7635 5.41992 11.9336 5.62394C12.1104 5.83476 12.26 6.06598 12.3756 6.3176C12.464 6.52162 12.5116 6.73924 12.5116 6.96366C12.498 7.3581 11.9948 7.69133 11.6411 7.52131C11.3963 7.4057 11.1855 7.22889 11.0223 7.01127C10.9067 6.86165 10.7978 6.70524 10.7094 6.54883C10.6482 6.45362 10.655 6.43321 10.7502 6.36521C10.8455 6.304 10.9203 6.2564 11.0155 6.20199" fill="#1C1B1B"/>
<path fill-rule="evenodd" clip-rule="evenodd" d="M9.95449 25.5706C9.95449 25.5706 9.91369 25.5842 9.89329 25.591L9.45125 25.6182C9.45125 25.6182 9.39684 25.6182 9.36964 25.6182C9.14522 25.6658 8.914 25.6794 8.68278 25.6726L8.37675 25.693L8.03672 25.7134L7.17984 25.7542C7.13904 25.7542 7.09823 25.7406 7.06423 25.7202C7.03023 25.693 7.00982 25.659 7.00302 25.6182C6.91462 25.3938 6.81941 25.1558 6.7446 24.9177C6.64259 24.5981 6.54058 24.2785 6.45217 23.9521C6.39777 23.748 6.36377 23.5372 6.31616 23.3264C6.31616 23.2992 6.31616 23.2788 6.31616 23.2516C6.37057 23.272 6.41817 23.2924 6.46578 23.3128C6.66979 23.4352 6.86701 23.5508 7.07103 23.6732C7.51307 23.9521 7.95511 24.2377 8.40395 24.5233C8.60797 24.6525 8.81199 24.7953 9.01601 24.9245C9.28803 25.0946 9.56686 25.2714 9.83888 25.4414C9.88649 25.4686 9.93409 25.489 9.94089 25.557" fill="#1C1B1B"/>
<path fill-rule="evenodd" clip-rule="evenodd" d="M15.7214 2.23717C15.6125 2.27118 15.5173 2.29838 15.4221 2.33238C15.3269 2.36638 15.3065 2.33238 15.2793 2.25757C15.2317 2.14196 15.1977 2.02635 15.1433 1.91074C15.1025 1.82914 15.0549 1.75433 14.9937 1.68632C14.9733 1.66592 14.9461 1.64552 14.9189 1.63192C14.8917 1.61832 14.8577 1.61832 14.8305 1.62512C14.8033 1.62512 14.7761 1.64552 14.7489 1.66592C14.7285 1.68632 14.7081 1.71353 14.7013 1.74073C14.6741 1.80193 14.6537 1.86994 14.6537 1.94475C14.6401 2.15557 14.6673 2.37319 14.7353 2.5704C14.8509 2.95804 14.9597 3.35247 15.0821 3.74011C15.1569 3.99173 15.2317 4.24335 15.3269 4.48818C15.3813 4.61739 15.4493 4.733 15.5241 4.84861C15.5581 4.89621 15.6057 4.93702 15.667 4.96422C15.6942 4.98462 15.7282 4.99142 15.7554 4.99142C15.7894 4.99142 15.8234 4.99142 15.8506 4.97102C15.8778 4.95742 15.905 4.93022 15.9186 4.90301C15.939 4.87581 15.9458 4.84181 15.9458 4.80781C15.9458 4.66499 15.9458 4.52218 15.9118 4.38617C15.8846 4.25015 15.8438 4.10734 15.803 3.97813C15.803 3.96453 15.7962 3.95773 15.7962 3.94413C15.7962 3.93053 15.7962 3.91693 15.803 3.91012C15.803 3.89652 15.8166 3.88972 15.8302 3.88292C15.837 3.87612 15.8506 3.86932 15.8642 3.86932L16.2042 3.76731C16.2314 3.82172 16.2518 3.87612 16.2654 3.93053C16.3198 4.18895 16.3878 4.44737 16.4218 4.7126C16.4558 4.89621 16.4354 5.08663 16.381 5.26345C16.347 5.34505 16.2994 5.41986 16.2314 5.48107C16.1702 5.54227 16.0886 5.58988 16.007 5.61708C15.9254 5.64428 15.8302 5.65788 15.7418 5.64428C15.6534 5.63748 15.5649 5.60348 15.4901 5.56267C15.3065 5.44706 15.1569 5.28385 15.0617 5.08663C14.8577 4.63779 14.6945 4.17535 14.5721 3.69931C14.4836 3.37968 14.3952 3.06005 14.3068 2.74042C14.2252 2.46159 14.1708 2.16917 14.1504 1.88354C14.1368 1.73393 14.1504 1.58431 14.1776 1.4415C14.2116 1.27829 14.3068 1.13547 14.4496 1.04026C14.5925 0.945056 14.7625 0.917854 14.9257 0.945056C15.0617 0.979059 15.1773 1.05387 15.2589 1.16948C15.4765 1.4483 15.633 1.77473 15.7146 2.12156C15.7146 2.15557 15.7146 2.18277 15.7146 2.21677" fill="#1C1B1B"/>
<path fill-rule="evenodd" clip-rule="evenodd" d="M5.20084 24.6729L5.81969 24.4689C5.84689 24.5369 5.8673 24.5845 5.8877 24.6389C5.98971 24.9517 6.08492 25.2645 6.18693 25.5774C6.19373 25.6046 6.20733 25.625 6.21413 25.6522C6.23453 25.7338 6.21413 25.761 6.13252 25.795C6.05091 25.829 5.99651 25.8494 5.9353 25.8698C5.60207 25.9786 5.26884 26.0738 4.93561 26.1826C4.51397 26.3186 4.09234 26.4615 3.6775 26.6043L2.6166 26.9511L1.98414 27.1619C1.85493 27.2027 1.84813 27.2027 1.80733 27.0667C1.72572 26.8151 1.65091 26.5635 1.56931 26.305C1.5353 26.203 1.5013 26.101 1.4673 26.0058C1.4537 25.965 1.4537 25.9242 1.5013 25.9038C1.67812 25.829 1.86853 25.7746 2.05895 25.7338C2.09295 25.8222 2.12696 25.9038 2.15416 25.9854C2.20176 26.1214 2.23577 26.2574 2.28337 26.3866C2.33098 26.5227 2.35818 26.5363 2.48739 26.4955C2.75941 26.407 3.03144 26.3254 3.29666 26.2302C3.43268 26.1826 3.44628 26.135 3.40547 26.0058C3.36467 25.8766 3.30346 25.693 3.25586 25.5366C3.22186 25.4346 3.22866 25.4142 3.32387 25.3802C3.48708 25.3257 3.6503 25.2713 3.82711 25.2169C3.85431 25.2781 3.88152 25.3257 3.90192 25.3802C3.95632 25.5434 4.01073 25.6998 4.06513 25.8562C4.09914 25.9514 4.11954 25.9582 4.21475 25.931L4.92201 25.7066L5.28924 25.591C5.28924 25.591 5.35045 25.5706 5.37765 25.557C5.39125 25.557 5.40485 25.5502 5.41165 25.5366C5.41846 25.5298 5.43206 25.5162 5.43206 25.5026C5.43206 25.489 5.43886 25.4754 5.43886 25.4618C5.43886 25.4482 5.43886 25.4346 5.43206 25.421C5.38445 25.2849 5.35045 25.1421 5.30285 24.9993L5.20764 24.6661" fill="#1C1B1B"/>
<path fill-rule="evenodd" clip-rule="evenodd" d="M18.768 2.0263C18.768 2.0263 18.802 2.0603 18.802 2.08071C18.836 2.23712 18.87 2.39353 18.8972 2.54995C18.9108 2.64516 18.8972 2.65876 18.802 2.67916C18.6252 2.71996 18.4416 2.76077 18.258 2.80157C18.156 2.82877 18.1356 2.85598 18.156 2.95118C18.2104 3.24361 18.2648 3.54284 18.3192 3.84206C18.3396 3.93727 18.3464 4.03248 18.3668 4.12769C18.3872 4.2229 18.4212 4.2569 18.5232 4.2433C18.7 4.2161 18.8768 4.1821 19.0605 4.14809L19.2305 4.11409C19.2509 4.16169 19.2645 4.2093 19.2781 4.2637C19.3053 4.37931 19.3257 4.49492 19.3529 4.61733C19.3801 4.73295 19.3529 4.73975 19.2713 4.76695C19.0809 4.81455 18.8904 4.85536 18.7 4.88936C18.5096 4.93016 18.3328 4.95056 18.1492 4.98457H18.0948C18.0472 4.90296 18.02 4.80775 18.0064 4.71254C17.9588 4.44052 17.9044 4.17529 17.8567 3.90327C17.8023 3.58364 17.7411 3.25721 17.6799 2.93758C17.6323 2.69956 17.5915 2.46834 17.5439 2.23032C17.4827 1.90389 17.4215 1.57746 17.3603 1.25103C17.3127 1.02661 17.2719 0.788589 17.2243 0.557368C17.2039 0.455359 17.2243 0.428156 17.3195 0.414555C17.6731 0.346549 18.0336 0.285343 18.3872 0.210537C18.4688 0.196935 18.5028 0.210537 18.53 0.285343C18.5436 0.312546 18.5504 0.339748 18.5572 0.373751C18.5708 0.516564 18.5844 0.652576 18.598 0.80219C18.4892 0.842994 18.3736 0.876997 18.258 0.890598C18.1288 0.9178 18.0064 0.945003 17.8839 0.972205C17.7615 1.00621 17.7819 1.01301 17.7955 1.10142C17.8363 1.31224 17.8771 1.51625 17.9112 1.72707C17.9248 1.80188 17.9384 1.88349 17.952 1.9651C17.986 2.16911 18.0132 2.18952 18.2172 2.14191L18.7476 2.0399" fill="#1C1B1B"/>
<path fill-rule="evenodd" clip-rule="evenodd" d="M32.8929 25.441C32.9269 25.407 32.961 25.373 32.995 25.3458C34.0627 24.7677 35.0963 24.1285 36.1844 23.5708C36.2116 23.5572 36.2456 23.5504 36.2797 23.5504C36.2797 23.598 36.2729 23.6456 36.2592 23.6864C36.1436 24.1693 36.0008 24.6453 35.8308 25.1078C35.7628 25.2914 35.6812 25.4818 35.6064 25.6586C35.5316 25.8422 35.5112 25.8286 35.3548 25.8082C35.1303 25.781 34.9127 25.7402 34.6747 25.713C34.4979 25.6858 34.3143 25.6722 34.1375 25.6518C34.0218 25.6382 33.8994 25.611 33.7838 25.5974C33.539 25.5634 33.2942 25.5294 33.0494 25.4886C32.995 25.475 32.9474 25.4546 32.8997 25.4274" fill="#1C1B1B"/>
<path fill-rule="evenodd" clip-rule="evenodd" d="M26.7179 0.80911C26.6907 0.965524 26.6635 1.11514 26.6363 1.25115C26.6227 1.31916 26.5887 1.33276 26.5139 1.31236L26.0039 1.21035C25.7659 1.16274 25.7454 1.17634 25.7046 1.40756C25.657 1.67279 25.6026 1.93801 25.555 2.20324C25.5278 2.33245 25.555 2.36645 25.6842 2.39365C25.8611 2.42766 26.0379 2.46166 26.2147 2.49566C26.3235 2.52286 26.3371 2.54327 26.3235 2.65208C26.3031 2.76089 26.2691 2.9309 26.2419 3.06691C26.2283 3.13492 26.1739 3.14172 26.1195 3.12812L25.7659 3.06691C25.6842 3.05331 25.6026 3.03971 25.5142 3.02611C25.419 3.02611 25.3918 3.03971 25.3714 3.12812C25.317 3.42735 25.2558 3.72657 25.2014 4.0258C25.1538 4.27742 25.1062 4.52225 25.0586 4.76707C25.045 4.84187 25.0314 4.91668 25.011 4.99149C24.9906 5.0663 24.977 5.06629 24.9294 5.05269C24.8342 5.03229 24.739 5.01869 24.6438 4.99829C24.5825 4.98469 24.5621 4.95068 24.5757 4.88268C24.671 4.40664 24.7662 3.93059 24.8546 3.44775C24.9158 3.10772 24.977 2.76769 25.0382 2.42766C25.079 2.20324 25.1266 2.00602 25.1674 1.7884C25.2422 1.40076 25.3102 1.01313 25.3918 0.625493C25.4326 0.428275 25.4394 0.421474 25.6298 0.462278C25.9631 0.523484 26.2963 0.59829 26.6295 0.666297C26.7179 0.686698 26.7247 0.7071 26.7247 0.788708" fill="#1C1B1B"/>
<path fill-rule="evenodd" clip-rule="evenodd" d="M21.9507 0.000147782H22.0935C22.1411 0.000147782 22.2363 0.0205496 22.3043 0.0205496C22.3723 0.0205496 22.4131 0.0477521 22.4267 0.115758C22.4471 0.272172 22.4743 0.428587 22.5015 0.591801C22.5288 0.748215 22.5424 0.857025 22.556 0.986237C22.5832 1.19026 22.6036 1.40107 22.6308 1.60509C22.6308 1.6595 22.6512 1.7071 22.6648 1.75471L22.7056 1.78191L22.726 1.7207C22.7804 1.53029 22.8348 1.33987 22.896 1.14945C22.9912 0.836623 23.0932 0.523795 23.1952 0.217767C23.1952 0.190565 23.2156 0.170163 23.236 0.149761C23.2564 0.129359 23.2836 0.129359 23.3108 0.129359L23.6985 0.156562C23.6645 0.272172 23.6373 0.380982 23.6032 0.46939C23.5352 0.680209 23.4536 0.884228 23.3788 1.09505C23.2292 1.50308 23.0932 1.91792 22.9572 2.32596C22.9096 2.44157 22.8756 2.55718 22.8416 2.67959C22.8144 2.8156 22.794 2.95161 22.7872 3.08763C22.7668 3.33245 22.7532 3.57727 22.7328 3.81529C22.7192 3.98531 22.692 4.15532 22.6784 4.33214C22.6784 4.42735 22.6648 4.51576 22.6512 4.61096C22.6376 4.69937 22.6172 4.71977 22.5288 4.71297L22.2907 4.68577C22.2159 4.68577 22.1955 4.65177 22.1955 4.57016C22.1955 4.48855 22.2159 4.34574 22.2227 4.25053C22.2499 3.97851 22.2703 3.70648 22.2975 3.42766C22.3179 3.23044 22.3451 3.03322 22.3451 2.8292C22.3451 2.63879 22.3247 2.44837 22.2907 2.26475C22.2363 1.90432 22.1683 1.55069 22.1139 1.19026C22.0595 0.829823 21.9915 0.442188 21.9303 0.0613533C21.9303 0.0409515 21.9303 0.013749 21.9303 -0.00665283" fill="#1C1B1B"/>
<path fill-rule="evenodd" clip-rule="evenodd" d="M6.63578 26.6246C6.71739 26.7402 6.77859 26.8627 6.81939 26.9987C6.8398 27.0531 6.78539 27.0735 6.75139 27.0939L6.16654 27.3727L5.44567 27.7127C5.12604 27.8623 4.80641 28.0052 4.49358 28.1548C4.22836 28.2772 3.96314 28.4064 3.70471 28.5356C3.61631 28.5832 3.5211 28.6172 3.42589 28.6648C3.30348 28.726 3.28988 28.7532 3.34428 28.8892C3.39188 29.0252 3.44629 29.1341 3.50069 29.2701C3.45309 29.2973 3.41909 29.3177 3.38508 29.3381L3.07906 29.4741C2.92264 29.5421 2.90904 29.5421 2.82743 29.3789C2.73223 29.1749 2.63702 28.9708 2.54181 28.7668C2.4466 28.5628 2.37179 28.4064 2.29019 28.2228C2.24258 28.114 2.24258 28.1004 2.35139 28.046C2.4534 27.9916 2.60301 27.9236 2.73223 27.8623C2.81383 27.8283 2.84104 27.8351 2.88184 27.9167C2.92264 27.9984 2.97025 28.1072 3.02465 28.2024C3.07226 28.2976 3.09946 28.318 3.21507 28.2636L4.41878 27.6991L5.96932 26.9715C6.14613 26.8899 6.31615 26.8014 6.49297 26.713C6.54057 26.6858 6.59497 26.6654 6.64938 26.645" fill="#1C1B1B"/>
<path fill-rule="evenodd" clip-rule="evenodd" d="M39.6935 29.0183C39.5983 28.9843 39.5235 28.9571 39.4487 28.9231C39.3739 28.8891 39.2787 28.8483 39.1971 28.8074C39.1155 28.7666 39.1019 28.7462 39.1359 28.6646C39.1699 28.583 39.2243 28.4606 39.2651 28.3586C39.3059 28.2566 39.2991 28.2294 39.1971 28.1886C38.8435 28.0322 38.4898 27.8826 38.143 27.7193C37.9186 27.6173 37.701 27.4949 37.4765 27.4065L36.3 26.8829C36.1368 26.8081 35.9736 26.7265 35.8104 26.6585C35.7424 26.6245 35.7288 26.5904 35.756 26.5156C35.7832 26.4408 35.824 26.3592 35.858 26.2912C35.858 26.2776 35.8716 26.264 35.8784 26.2572C35.8852 26.2436 35.8988 26.2368 35.9124 26.2368C35.926 26.2368 35.9396 26.2368 35.9532 26.2368C35.9668 26.2368 35.9804 26.2436 35.994 26.2504C36.1436 26.3184 36.3068 26.3796 36.4565 26.4476L38.2926 27.2841L39.3671 27.7738C39.4963 27.8282 39.5099 27.8214 39.5643 27.6989C39.6187 27.5765 39.6527 27.5085 39.7004 27.4133C39.7004 27.3997 39.714 27.3861 39.7208 27.3793C39.7276 27.3725 39.7412 27.3589 39.7548 27.3589C39.7684 27.3589 39.782 27.3521 39.7956 27.3589C39.8092 27.3589 39.8228 27.3589 39.8364 27.3725L40.2512 27.5561C40.2512 27.5561 40.2784 27.5697 40.292 27.5765C40.3056 27.5833 40.3124 27.5969 40.3192 27.6105C40.3192 27.6241 40.326 27.6377 40.3192 27.6513C40.3192 27.6649 40.3192 27.6785 40.3056 27.6921C40.2512 27.835 40.19 27.971 40.1288 28.107C40.0064 28.379 39.884 28.6578 39.7616 28.9299C39.748 28.9639 39.7276 28.9979 39.7004 29.0523" fill="#1C1B1B"/>
<path fill-rule="evenodd" clip-rule="evenodd" d="M5.39128 17.3957L4.86083 17.2869L3.3987 16.974L2.11338 16.702C1.99777 16.6748 1.88896 16.6408 1.75975 16.6272C1.63054 16.6136 1.60334 16.6272 1.57614 16.77C1.55573 16.872 1.52853 16.9672 1.50133 17.0692C1.50133 17.0828 1.50133 17.0896 1.49453 17.1032C1.49453 17.11 1.48093 17.1236 1.47413 17.1304C1.46733 17.1304 1.45372 17.1372 1.44692 17.144C1.43332 17.144 1.42652 17.144 1.41292 17.144L0.936878 17.0352C0.875672 17.0216 0.868872 16.9808 0.882473 16.9264C0.923277 16.7564 0.95728 16.5796 0.998083 16.4096C1.05249 16.1376 1.11369 15.8655 1.1749 15.5935C1.2021 15.4711 1.2021 15.4711 1.32451 15.4915L1.72575 15.5731C1.82096 15.5935 1.83456 15.6139 1.81416 15.7091C1.79376 15.8043 1.76655 15.9063 1.75295 16.0083C1.73935 16.1104 1.75295 16.1376 1.85496 16.1716C2.06578 16.226 2.2766 16.2736 2.48742 16.328C2.62343 16.362 2.75264 16.3824 2.88865 16.4096L4.11957 16.6748L5.45249 16.9604C5.5817 16.9876 5.5885 17.0012 5.5545 17.1304C5.53409 17.2053 5.52049 17.2801 5.50689 17.3549C5.50689 17.3685 5.50689 17.3753 5.49329 17.3889C5.47969 17.4025 5.47969 17.4093 5.47289 17.4093C5.46609 17.4093 5.45249 17.4161 5.43889 17.4229C5.42528 17.4229 5.41848 17.4229 5.40488 17.4229" fill="#1C1B1B"/>
<path fill-rule="evenodd" clip-rule="evenodd" d="M21.3251 0.061448V0.598697C21.3251 0.659902 21.2979 0.687105 21.2367 0.687105H20.9307C20.8219 0.687105 20.8151 0.687105 20.7879 0.802715C20.7811 0.829917 20.7743 0.863921 20.7675 0.891123V2.21044C20.7675 2.36686 20.7811 2.52327 20.7811 2.68649C20.7811 2.8497 20.7811 2.99251 20.7675 3.14893V3.16253C20.7675 3.32574 20.7675 3.48896 20.7811 3.65217C20.7811 3.67938 20.7811 3.71338 20.7811 3.74058C20.7811 3.76778 20.7811 3.79499 20.7811 3.81539C20.7811 3.9718 20.7947 4.12822 20.7947 4.29143C20.7947 4.39344 20.7947 4.51585 20.7811 4.61106C20.7811 4.66546 20.7335 4.68587 20.6859 4.68587C20.6383 4.68587 20.5295 4.68587 20.4479 4.68587C20.3663 4.68587 20.3459 4.66546 20.3459 4.58386V0.829918C20.3459 0.693905 20.3323 0.693905 20.2098 0.693905C20.0874 0.693905 19.9854 0.693905 19.8902 0.693905C19.795 0.693905 19.7882 0.673503 19.7882 0.591896V0.177058C19.7882 0.0410461 19.8018 0.0478467 19.9242 0.0478467H21.2299C21.2639 0.0478467 21.3047 0.0546473 21.3387 0.061448" fill="#1C1B1B"/>
<path fill-rule="evenodd" clip-rule="evenodd" d="M10.5121 8.65687L9.53965 9.60215L9.28123 9.33693L8.9276 8.9697L8.31554 8.32364L7.49947 7.44636L7.43826 7.37835L6.47938 6.38546C6.4023 6.30839 6.4023 6.22905 6.47938 6.14744L6.60179 6.02503C6.60179 6.02503 6.62219 6.00463 6.62899 5.99783C6.64259 5.99783 6.65619 5.99103 6.66979 5.99103C6.68339 5.99103 6.69699 5.99103 6.7106 5.99783C6.7242 5.99783 6.731 6.01143 6.7378 6.02503C6.96222 6.24945 7.17984 6.46027 7.38386 6.67789C7.51987 6.8207 7.64908 6.95671 7.78509 7.09953L8.60117 7.97001L8.64877 8.01761L9.29483 8.66367C9.39684 8.76568 9.41724 8.76568 9.51925 8.66367C9.62126 8.56166 9.78447 8.41205 9.91369 8.28284C10.0429 8.15362 10.0565 8.16042 10.1721 8.28284C10.2401 8.36444 10.3217 8.43925 10.3965 8.50726L10.5053 8.62287" fill="#1C1B1B"/>
<path fill-rule="evenodd" clip-rule="evenodd" d="M1.5761 14.1727C3.04503 14.6148 4.47316 15.1316 5.92169 15.5736C5.92169 15.7097 5.89449 15.8457 5.83329 15.9613C5.81288 16.0157 5.76528 16.0157 5.71768 15.9953L5.39125 15.8933C5.04441 15.7777 4.69758 15.6553 4.34395 15.5464C3.99712 15.4308 3.61629 15.322 3.25585 15.1996C2.89542 15.0772 2.54859 14.9684 2.20176 14.846L1.5557 14.6216C1.45369 14.5876 1.44009 14.5672 1.46729 14.4719C1.49449 14.3699 1.5285 14.2815 1.5761 14.1591" fill="#1C1B1B"/>
<path fill-rule="evenodd" clip-rule="evenodd" d="M8.58071 29.7321C8.66912 29.8273 8.75073 29.9089 8.82554 30.0041C8.83234 30.0109 8.83914 30.0245 8.84594 30.0381C8.84594 30.0517 8.84594 30.0653 8.84594 30.0721C8.84594 30.0857 8.84594 30.0993 8.83234 30.1062C8.83234 30.1198 8.81874 30.1266 8.80513 30.1334L8.54671 30.3578C8.22708 30.6366 7.91425 30.9222 7.59463 31.201C7.275 31.4799 6.97577 31.7315 6.66294 31.9967C6.43852 32.1939 6.2073 32.398 5.97608 32.602C5.81966 32.738 5.66325 32.874 5.50684 33.01C5.47283 33.0372 5.43203 33.0644 5.39123 33.0848L5.1192 32.7788C5.16681 32.6632 5.26882 32.6156 5.34362 32.5544C5.78566 32.1531 6.2549 31.7519 6.71055 31.3575L7.86665 30.3578C8.05707 30.1878 8.24748 30.0177 8.4447 29.8477C8.48551 29.8137 8.52631 29.7865 8.58071 29.7457" fill="#1C1B1B"/>
<path fill-rule="evenodd" clip-rule="evenodd" d="M41.7949 20.5381C41.7949 20.6537 41.8085 20.7625 41.7949 20.8509C41.7813 20.9393 41.7609 20.9733 41.6589 20.9733H37.3949C37.2453 20.9733 37.1705 20.8985 37.1705 20.7489C37.1705 20.6809 37.1569 20.5857 37.1977 20.5449C37.2385 20.5041 37.3269 20.5109 37.3949 20.5109H39.3671C39.5303 20.5109 39.6935 20.5245 39.8568 20.5245C40.02 20.5245 40.1764 20.5245 40.3328 20.5245H40.87C41.0129 20.5245 41.1625 20.5041 41.3121 20.5041C41.4617 20.5041 41.6249 20.5041 41.8017 20.5245" fill="#1C1B1B"/>
<path fill-rule="evenodd" clip-rule="evenodd" d="M16.728 0.537231C16.762 0.686845 16.796 0.816057 16.8232 0.952069C16.8708 1.21729 16.9184 1.47572 16.966 1.73414C17 1.93136 17.034 2.12858 17.068 2.32579C17.1088 2.52301 17.1564 2.74743 17.1972 2.96505C17.272 3.35269 17.34 3.74032 17.4216 4.12796C17.476 4.39318 17.5373 4.6584 17.5917 4.92363C17.5917 4.97123 17.6053 5.01884 17.6121 5.07324C17.4896 5.12765 17.3536 5.14805 17.2244 5.14805C17.17 5.14805 17.1564 5.10724 17.1496 5.05964C17.1156 4.88963 17.0884 4.71961 17.0544 4.54959C16.9864 4.19596 16.9116 3.83553 16.8436 3.4819C16.7756 3.12147 16.728 2.81544 16.6668 2.47541C16.626 2.25099 16.5716 2.03337 16.5308 1.79535C16.4628 1.44171 16.4015 1.08808 16.3403 0.734449C16.3199 0.618839 16.3267 0.612038 16.4356 0.584836C16.5444 0.557633 16.626 0.550833 16.7416 0.537231" fill="#1C1B1B"/>
<path fill-rule="evenodd" clip-rule="evenodd" d="M25.7863 25.9985C25.8611 25.9713 25.9427 25.9441 26.0175 25.9169C26.3371 25.8149 26.6567 25.7129 26.9764 25.6176C27.228 25.5428 27.4796 25.4816 27.7312 25.4136C27.7516 25.4068 27.772 25.4 27.7924 25.4C27.8672 25.4 27.9012 25.4 27.9148 25.4816C27.942 25.604 27.9625 25.7265 27.9829 25.8489C28.0033 25.9713 28.0237 26.1549 28.0373 26.3113C28.0373 26.3589 28.0373 26.3997 28.0373 26.4473C28.0373 26.5289 28.0169 26.5425 27.942 26.5289C27.8672 26.5153 27.7516 26.4881 27.6564 26.4677L26.3099 26.1685L25.8679 26.0733C25.8679 26.0733 25.8135 26.0529 25.7863 26.0393V26.0053" fill="#1C1B1B"/>
<path fill-rule="evenodd" clip-rule="evenodd" d="M34.1171 33.2619C33.947 33.2551 33.7838 33.1803 33.6682 33.0579C33.5526 32.9355 33.4914 32.7655 33.4914 32.5955C33.4914 32.4322 33.5662 32.269 33.6818 32.1602C33.8042 32.0446 33.9606 31.9834 34.1239 31.9834C34.2055 31.9834 34.2871 31.997 34.3551 32.0242C34.4299 32.0514 34.4979 32.099 34.5523 32.1534C34.6067 32.2078 34.6543 32.2758 34.6883 32.3506C34.7223 32.4254 34.7359 32.507 34.7359 32.5819C34.7359 32.6703 34.7291 32.7519 34.6951 32.8335C34.6679 32.9151 34.6203 32.9899 34.5591 33.0511C34.4979 33.1123 34.4299 33.1599 34.3483 33.1939C34.2667 33.2279 34.1851 33.2483 34.0966 33.2483" fill="#1C1B1B"/>
<path fill-rule="evenodd" clip-rule="evenodd" d="M9.66205 34.5468C9.58044 34.5468 9.49203 34.54 9.41723 34.5128C9.33562 34.4856 9.26761 34.438 9.20641 34.3836C9.1452 34.3224 9.0976 34.2544 9.0636 34.1796C9.02959 34.1048 9.01599 34.0164 9.01599 33.9348C9.01599 33.8532 9.03639 33.7648 9.0636 33.69C9.0976 33.6151 9.1452 33.5403 9.20641 33.4859C9.26761 33.4247 9.34242 33.3839 9.41723 33.3567C9.49884 33.3295 9.58044 33.3159 9.66205 33.3227C9.82526 33.3227 9.98168 33.3907 10.0973 33.5063C10.2129 33.6219 10.2809 33.7784 10.2809 33.9416C10.2809 34.1048 10.2129 34.2612 10.0973 34.3768C9.98168 34.4924 9.82526 34.5604 9.66205 34.5604V34.5468Z" fill="#1C1B1B"/>
<path fill-rule="evenodd" clip-rule="evenodd" d="M28.4929 25.4273C28.6017 25.4273 28.7173 25.4273 28.8261 25.4273C29.1254 25.4681 29.4178 25.5089 29.7102 25.5565C29.7374 25.5565 29.7714 25.5701 29.7986 25.5769C29.8054 25.5769 29.819 25.5837 29.8258 25.5905C29.8326 25.5905 29.8394 25.6041 29.8462 25.6109C29.8462 25.6177 29.853 25.6314 29.853 25.6382C29.853 25.645 29.853 25.6586 29.853 25.6654C29.8122 25.781 29.7578 25.8898 29.615 25.9102C29.4382 25.9442 29.2614 25.985 29.0846 26.0258C29.0574 26.0326 29.0302 26.0394 29.0098 26.0258C28.9826 26.0258 28.9622 26.0054 28.9418 25.9918C28.7785 25.815 28.6289 25.6246 28.4997 25.4205" fill="#1C1B1B"/>
<path fill-rule="evenodd" clip-rule="evenodd" d="M15.973 26.1414C15.9254 26.1618 15.8778 26.1822 15.8234 26.2026L15.2181 26.3862C15.1093 26.4202 15.0073 26.4542 14.8985 26.4814C14.7897 26.5086 14.7625 26.4814 14.7693 26.3726C14.7693 26.2842 14.7829 26.1958 14.7965 26.1074C14.8169 25.9986 14.8577 25.9714 14.9597 25.985C15.2249 26.0122 15.4834 26.0394 15.7486 26.0666C15.8234 26.0666 15.8914 26.0938 15.973 26.1142V26.1482" fill="#1C1B1B"/>
<path fill-rule="evenodd" clip-rule="evenodd" d="M13.9669 25.9309C13.9261 26.1145 13.8309 26.1893 13.654 26.1553L13.1712 26.0669C13.11 26.0533 13.0488 26.0329 13.042 25.9581C13.3412 25.8629 13.6608 25.8561 13.9669 25.9309Z" fill="#1C1B1B"/>
<path fill-rule="evenodd" clip-rule="evenodd" d="M31.0772 25.7949C31.0772 25.7949 31.0432 25.8357 31.0228 25.8493C30.8868 25.9241 30.7508 25.9989 30.6147 26.0737C30.5263 26.1145 30.4923 26.0873 30.4991 25.9921V25.8221C30.4991 25.7677 30.5399 25.7065 30.6079 25.7133C30.7508 25.7269 30.8868 25.7473 31.0296 25.7609C31.0432 25.7609 31.0568 25.7813 31.0772 25.8017" fill="#1C1B1B"/>
<path fill-rule="evenodd" clip-rule="evenodd" d="M11.8179 26.0122C11.8179 26.0122 11.8791 25.9918 11.9131 25.985H12.1647C12.2463 25.985 12.2735 25.9986 12.3007 26.0939C12.3007 26.1007 12.3007 26.1075 12.3007 26.1211C12.3007 26.1755 12.3007 26.2571 12.2803 26.2911C12.2599 26.3251 12.1783 26.2775 12.1307 26.2503C12.0831 26.2231 11.9879 26.1755 11.9199 26.1347C11.8791 26.1075 11.8451 26.0803 11.8111 26.0463V26.0122" fill="#1C1B1B"/>
<path d="M51.8056 9.39868H46.1475V31.3783H51.8056V9.39868Z" fill="#1C1B1B"/>
<path fill-rule="evenodd" clip-rule="evenodd" d="M75.9273 31.3777L68.5079 9.39136H61.7412L54.3218 31.3777H60.1907L61.5712 26.5493H68.5963V26.2705L70.0584 31.3777H75.9273ZM62.7137 22.5778L65.128 14.1518L67.5422 22.5778H62.7137Z" fill="#1C1B1B"/>
<path fill-rule="evenodd" clip-rule="evenodd" d="M97.1383 23.0474C97.1383 23.6934 97.1043 31.7726 86.8694 31.7726C76.6345 31.7726 76.6005 21.7348 76.6005 20.4223C76.6005 19.1098 76.7773 9.00409 87.0666 9.00409C97.3559 9.00409 97.1451 17.8313 97.1451 17.8313H91.7658C91.7658 17.8313 91.6366 13.6557 87.291 13.6557C82.9454 13.6557 82.2586 18.3617 82.2586 20.8508C82.2586 23.3398 83.4555 27.2909 87.223 27.2909C90.9906 27.2909 91.7658 24.0266 91.7658 23.1154L97.1451 23.0474H97.1383Z" fill="#1C1B1B"/>
</g>
<defs>
<clipPath id="clip0_144_407">
<rect width="96.5687" height="40.8037" fill="white" transform="translate(0.789307)"/>
</clipPath>
</defs>
</svg>
