<svg width="174" height="18" viewBox="0 0 174 18" fill="none" xmlns="http://www.w3.org/2000/svg">
<path d="M14.6522 0.678689V3.46749L5.79893 14.0915H14.6522V17.5H0.885332V14.7112L9.73865 4.08722H1.37226V0.678689H14.6522ZM29.0832 8.91228C30.6768 9.66481 31.5621 11.0371 31.5621 12.8963C31.5621 15.7736 29.4373 17.5 25.8074 17.5H17.8837V0.678689H25.7632C29.216 0.678689 31.2522 2.36082 31.2522 5.14962C31.2522 6.87601 30.4554 8.15975 29.0832 8.91228ZM25.1434 3.73309H21.5136V7.45148H25.1434C26.737 7.45148 27.5338 6.83175 27.5338 5.59228C27.5338 4.35282 26.737 3.73309 25.1434 3.73309ZM25.1877 14.4456C26.9141 14.4456 27.7994 13.7816 27.7994 12.4093C27.7994 11.0371 26.9141 10.3731 25.1877 10.3731H21.5136V14.4456H25.1877ZM38.6005 14.18H47.2767V17.5H34.8821V0.678689H47.0554V3.99868H38.6005V7.27441H45.0634V10.4616H38.6005V14.18ZM64.4079 14.0472H65.0276V17.5H63.0799C61.0437 17.5 59.8485 16.3933 59.8485 14.3571V11.3027H54.2266V17.5H50.4197V0.678689H58.2106C62.0618 0.678689 64.3636 2.44935 64.3636 5.37095C64.3636 7.62855 62.6815 9.08934 60.8223 9.66481H63.6554V13.2947C63.6554 13.7373 63.9653 14.0472 64.4079 14.0472ZM57.6351 3.77735H54.2266V8.38108H57.6351C59.5829 8.38108 60.5567 7.67281 60.5567 6.07922C60.5567 4.52988 59.5829 3.77735 57.6351 3.77735ZM71.6676 14.18H80.3439V17.5H67.9492V0.678689H80.1226V3.99868H71.6676V7.27441H78.1306V10.4616H71.6676V14.18ZM95.8815 0.678689V3.46749L87.0282 14.0915H95.8815V17.5H82.1146V14.7112L90.9679 4.08722H82.6015V0.678689H95.8815ZM109.825 0.678689H113.632V17.5H109.825V10.5944H102.92V17.5H99.1129V0.678689H102.92V7.14161H109.825V0.678689ZM121.866 14.18H130.542V17.5H118.148V0.678689H130.321V3.99868H121.866V7.27441H128.329V10.4616H121.866V14.18ZM153.694 0.678689V17.5H149.975V5.63655L145.637 17.5H141.742L137.404 5.63655V17.5H133.685V0.678689H139.263L143.734 12.852L148.16 0.678689H153.694ZM165.38 17.7213C160.334 17.7213 157.014 14.3128 157.014 9.08934C157.014 3.91015 160.378 0.457356 165.38 0.457356C170.426 0.457356 173.746 3.86588 173.746 9.08934C173.746 14.2685 170.382 17.7213 165.38 17.7213ZM165.38 14.4456C168.08 14.4456 169.851 12.3208 169.851 9.08934C169.851 5.85788 168.08 3.73309 165.38 3.73309C162.68 3.73309 160.909 5.85788 160.909 9.08934C160.909 12.3208 162.68 14.4456 165.38 14.4456Z" fill="#1C1B1B"/>
</svg>
