<svg width="170" height="17" viewBox="0 0 170 17" fill="none" xmlns="http://www.w3.org/2000/svg">
<path d="M0.358063 16.1389V0.664914H4.64727L10.8378 10.7672H8.58266L14.5964 0.664914H18.8856L18.9298 16.1389H14.1764L14.1321 7.82715H14.8838L10.7715 14.7462H8.47213L4.18292 7.82715H5.11154V16.1389H0.358063ZM26.6703 6.41235H33.5684V10.1703H26.6703V6.41235ZM27.0241 12.204H34.7623V16.1389H21.8947V0.664914H34.4749V4.59967H27.0241V12.204ZM37.2132 16.1389V0.664914H41.5024L47.6929 10.7672H45.4379L51.4515 0.664914H55.7408L55.785 16.1389H51.0315L50.9873 7.82715H51.739L47.6266 14.7462H45.3272L41.0381 7.82715H41.9666V16.1389H37.2132ZM66.8643 16.4926C65.6111 16.4926 64.4467 16.2936 63.3707 15.8957C62.3095 15.4978 61.3882 14.9378 60.607 14.2157C59.8258 13.4788 59.2142 12.6167 58.7719 11.6293C58.3445 10.642 58.1308 9.56614 58.1308 8.40186C58.1308 7.22295 58.3445 6.14712 58.7719 5.17446C59.2142 4.1871 59.8258 3.3323 60.607 2.61016C61.3882 1.87331 62.3095 1.30595 63.3707 0.908079C64.4467 0.510131 65.6111 0.311157 66.8643 0.311157C68.1319 0.311157 69.2956 0.510131 70.357 0.908079C71.4183 1.30595 72.3395 1.87331 73.1211 2.61016C73.9019 3.3323 74.5062 4.1871 74.9337 5.17446C75.3757 6.14712 75.5971 7.22295 75.5971 8.40186C75.5971 9.56614 75.3757 10.642 74.9337 11.6293C74.5062 12.6167 73.9019 13.4788 73.1211 14.2157C72.3395 14.9378 71.4183 15.4978 70.357 15.8957C69.2956 16.2936 68.1319 16.4926 66.8643 16.4926ZM66.8643 12.2704C67.3503 12.2704 67.7999 12.182 68.2123 12.0051C68.6398 11.8283 69.0083 11.5777 69.3184 11.2535C69.6421 10.9145 69.893 10.5093 70.0697 10.0377C70.2463 9.55136 70.335 9.00613 70.335 8.40186C70.335 7.79766 70.2463 7.25979 70.0697 6.78816C69.893 6.30183 69.6421 5.89661 69.3184 5.57233C69.0083 5.23343 68.6398 4.97549 68.2123 4.79865C67.7999 4.62181 67.3503 4.53335 66.8643 4.53335C66.3776 4.53335 65.9206 4.62181 65.4932 4.79865C65.0805 4.97549 64.712 5.23343 64.3877 5.57233C64.0782 5.89661 63.835 6.30183 63.6581 6.78816C63.4812 7.25979 63.3928 7.79766 63.3928 8.40186C63.3928 9.00613 63.4812 9.55136 63.6581 10.0377C63.835 10.5093 64.0782 10.9145 64.3877 11.2535C64.712 11.5777 65.0805 11.8283 65.4932 12.0051C65.9206 12.182 66.3776 12.2704 66.8643 12.2704ZM77.9329 16.1389V0.664914H85.3837C86.8286 0.664914 88.0742 0.900651 89.1204 1.37228C90.1818 1.84383 90.9998 2.52178 91.5744 3.40598C92.1491 4.27548 92.4364 5.30711 92.4364 6.5008C92.4364 7.6945 92.1491 8.72613 91.5744 9.59563C90.9998 10.4503 90.1818 11.1062 89.1204 11.563C88.0742 12.0199 86.8286 12.2483 85.3837 12.2483H80.8296L83.151 10.104V16.1389H77.9329ZM87.1971 16.1389L83.3943 10.502H88.921L92.7685 16.1389H87.1971ZM83.151 10.6788L80.8296 8.31348H85.0524C85.7748 8.31348 86.3055 8.15134 86.6444 7.82715C86.9977 7.50295 87.1751 7.06081 87.1751 6.5008C87.1751 5.9408 86.9977 5.49866 86.6444 5.17446C86.3055 4.85027 85.7748 4.68813 85.0524 4.68813H80.8296L83.151 2.3228V10.6788ZM98.6128 16.1389V9.35246L99.8069 12.4693L92.7761 0.664914H98.2815L103.035 8.73348H99.8288L104.627 0.664914H109.668L102.681 12.4693L103.831 9.35246V16.1389H98.6128ZM117.843 16.1389V0.664914H126.112C128.249 0.664914 129.826 1.04808 130.843 1.81441C131.86 2.56597 132.369 3.53128 132.369 4.71026C132.369 5.4913 132.147 6.19131 131.705 6.81029C131.278 7.41449 130.652 7.89347 129.826 8.24715C129 8.60083 127.984 8.77767 126.775 8.77767L127.217 7.58398C128.426 7.58398 129.465 7.75347 130.335 8.09237C131.219 8.43134 131.897 8.92503 132.369 9.57349C132.855 10.2072 133.098 10.9735 133.098 11.8725C133.098 13.2135 132.538 14.2599 131.418 15.0115C130.313 15.7631 128.691 16.1389 126.554 16.1389H117.843ZM122.972 12.4915H126.112C126.687 12.4915 127.114 12.3883 127.394 12.182C127.689 11.9757 127.836 11.6735 127.836 11.2757C127.836 10.8777 127.689 10.5756 127.394 10.3693C127.114 10.163 126.687 10.0598 126.112 10.0598H122.619V6.61132H125.404C125.994 6.61132 126.421 6.51551 126.687 6.32396C126.966 6.11764 127.107 5.83028 127.107 5.46182C127.107 5.07865 126.966 4.7913 126.687 4.59967C126.421 4.40813 125.994 4.31232 125.404 4.31232H122.972V12.4915ZM143.5 16.4926C142.246 16.4926 141.082 16.2936 140.006 15.8957C138.945 15.4978 138.024 14.9378 137.243 14.2157C136.461 13.4788 135.849 12.6167 135.407 11.6293C134.98 10.642 134.766 9.56614 134.766 8.40186C134.766 7.22295 134.98 6.14712 135.407 5.17446C135.849 4.1871 136.461 3.3323 137.243 2.61016C138.024 1.87331 138.945 1.30595 140.006 0.908079C141.082 0.510131 142.246 0.311157 143.5 0.311157C144.767 0.311157 145.932 0.510131 146.993 0.908079C148.054 1.30595 148.975 1.87331 149.756 2.61016C150.537 3.3323 151.142 4.1871 151.569 5.17446C152.012 6.14712 152.232 7.22295 152.232 8.40186C152.232 9.56614 152.012 10.642 151.569 11.6293C151.142 12.6167 150.537 13.4788 149.756 14.2157C148.975 14.9378 148.054 15.4978 146.993 15.8957C145.932 16.2936 144.767 16.4926 143.5 16.4926ZM143.5 12.2704C143.985 12.2704 144.435 12.182 144.848 12.0051C145.276 11.8283 145.644 11.5777 145.954 11.2535C146.278 10.9145 146.528 10.5093 146.706 10.0377C146.882 9.55136 146.97 9.00613 146.97 8.40186C146.97 7.79766 146.882 7.25979 146.706 6.78816C146.528 6.30183 146.278 5.89661 145.954 5.57233C145.644 5.23343 145.276 4.97549 144.848 4.79865C144.435 4.62181 143.985 4.53335 143.5 4.53335C143.013 4.53335 142.556 4.62181 142.129 4.79865C141.716 4.97549 141.347 5.23343 141.023 5.57233C140.713 5.89661 140.47 6.30183 140.293 6.78816C140.117 7.25979 140.028 7.79766 140.028 8.40186C140.028 9.00613 140.117 9.55136 140.293 10.0377C140.47 10.5093 140.713 10.9145 141.023 11.2535C141.347 11.5777 141.716 11.8283 142.129 12.0051C142.556 12.182 143.013 12.2704 143.5 12.2704ZM152.57 16.1389L159.469 6.5008L159.446 10.1482L152.769 0.664914H158.628L162.519 6.41235L160.021 6.43448L163.824 0.664914H169.439L162.763 9.94931V6.32396L169.771 16.1389H163.802L159.911 10.1261L162.321 10.104L158.517 16.1389H152.57Z" fill="#1C1B1B"/>
</svg>
