<svg width="49" height="49" viewBox="0 0 49 49" fill="none" xmlns="http://www.w3.org/2000/svg">
<circle cx="24.9327" cy="24.75" r="24" fill="white"/>
<path d="M19.1146 26.0429V18.9319C19.1146 17.8608 19.9829 16.9925 21.054 16.9925C22.1251 16.9925 22.9934 17.8608 22.9934 18.9319V26.0429" stroke="black" stroke-width="1.12445" stroke-linecap="round" stroke-linejoin="round"/>
<path d="M34.6296 25.3965V29.5985C34.6296 33.7043 31.3012 37.0327 27.1954 37.0327H26.5489C22.443 37.0327 19.1146 33.7043 19.1146 29.5985V25.3965" stroke="black" stroke-width="1.12445" stroke-linecap="round" stroke-linejoin="round"/>
<path d="M22.9934 27.9823V26.7578V24.75C22.9934 23.6789 23.8617 22.8106 24.9328 22.8106C26.0039 22.8106 26.8722 23.6789 26.8722 24.75V26.8069V27.9823" stroke="black" stroke-width="1.12445" stroke-linecap="round" stroke-linejoin="round"/>
<path d="M26.8721 27.9823V26.7578V24.75C26.8721 23.6789 27.7403 22.8106 28.8114 22.8106C29.8826 22.8106 30.7508 23.6789 30.7508 24.75V26.8069V27.9823" stroke="black" stroke-width="1.12445" stroke-linecap="round" stroke-linejoin="round"/>
<path d="M30.751 27.9823V26.7578V24.75C30.751 23.6789 31.6192 22.8106 32.6904 22.8106C33.7615 22.8106 34.6297 23.6789 34.6297 24.75V26.8069V27.9823" stroke="black" stroke-width="1.12445" stroke-linecap="round" stroke-linejoin="round"/>
<path d="M27.5185 18.9319C27.5185 18.2524 27.4137 17.5974 27.2193 16.9821C27.0019 16.294 26.6725 15.6557 26.2524 15.0885C25.0748 13.4982 23.1847 12.4673 21.0539 12.4673C18.9231 12.4673 17.0331 13.4982 15.8554 15.0885C15.4354 15.6557 15.106 16.294 14.8886 16.9821C14.6942 17.5974 14.5894 18.2524 14.5894 18.9319" stroke="black" stroke-width="1.12445" stroke-linecap="round"/>
</svg>
